# File produced by Open Asset Import Library (http://www.assimp.sf.net)
# (assimp v3.2.202087883)

mtllib model_normalized.mtl

# 104 vertex positions
v 0.207904 0.404258 0.046393
v 0.208376 -0.397085 0.046393
v 0.208376 0.397103 0.046393
v 0.207904 -0.404319 0.046393
v 0.208376 0.397103 -0.046393
v 0.207904 0.404258 -0.046393
v 0.206489 0.411335 0.046393
v 0.208376 -0.397085 -0.046393
v 0.206489 0.411335 -0.046393
v 0.206489 -0.411317 0.046393
v 0.207904 -0.404319 -0.046393
v 0.204208 0.418176 -0.046393
v 0.204208 0.418176 0.046393
v 0.206489 -0.411317 -0.046393
v 0.204208 -0.418158 -0.046393
v 0.204208 -0.418158 0.046393
v 0.200984 0.424624 -0.046393
v 0.200984 -0.424606 -0.046393
v 0.200984 0.424624 0.046393
v 0.200984 -0.424606 0.046393
v 0.196974 0.430600 -0.046393
v 0.196974 -0.430582 0.046393
v 0.196974 0.430600 0.046393
v 0.196974 -0.430582 -0.046393
v 0.192256 0.436026 -0.046393
v 0.192256 -0.436008 -0.046393
v 0.192256 -0.436008 0.046393
v 0.192256 0.436026 0.046393
v 0.186831 0.440744 0.046393
v 0.186831 0.440744 -0.046393
v 0.186831 -0.440804 -0.046393
v 0.186831 -0.440804 0.046393
v 0.180855 0.444754 0.046393
v 0.180855 0.444754 -0.046393
v 0.180855 -0.444736 -0.046393
v 0.180855 -0.444736 0.046393
v 0.174407 0.447899 0.046393
v 0.174407 -0.447960 -0.046393
v 0.174407 0.447899 -0.046393
v 0.174407 -0.447960 0.046393
v 0.167566 0.450258 0.046393
v 0.167566 -0.450240 -0.046393
v 0.167566 0.450258 -0.046393
v 0.167566 -0.450240 0.046393
v 0.160489 0.451674 0.046393
v 0.160489 0.451674 -0.046393
v 0.160489 -0.451655 -0.046393
v 0.160489 -0.451655 0.046393
v 0.153333 0.452145 0.046393
v 0.153333 -0.452127 -0.046393
v 0.153333 0.452145 -0.046393
v 0.153333 -0.452127 0.046393
v -0.153333 0.452145 -0.046393
v -0.153333 -0.452127 -0.046393
v -0.153333 0.452145 0.046393
v -0.153333 -0.452127 0.046393
v -0.160489 0.451674 0.046393
v -0.160489 -0.451655 -0.046393
v -0.160489 0.451674 -0.046393
v -0.160489 -0.451655 0.046393
v -0.167566 0.450258 0.046393
v -0.167566 -0.450240 -0.046393
v -0.167566 0.450258 -0.046393
v -0.167566 -0.450240 0.046393
v -0.174407 0.447899 0.046393
v -0.174407 -0.447960 -0.046393
v -0.174407 0.447899 -0.046393
v -0.174407 -0.447960 0.046393
v -0.180855 0.444754 0.046393
v -0.180855 -0.444736 -0.046393
v -0.180855 0.444754 -0.046393
v -0.180855 -0.444736 0.046393
v -0.186831 0.440744 0.046393
v -0.186831 -0.440804 -0.046393
v -0.186831 0.440744 -0.046393
v -0.186831 -0.440804 0.046393
v -0.192256 0.436026 0.046393
v -0.192256 0.436026 -0.046393
v -0.192256 -0.436008 -0.046393
v -0.192256 -0.436008 0.046393
v -0.196974 0.430600 -0.046393
v -0.196974 -0.430582 -0.046393
v -0.196974 -0.430582 0.046393
v -0.196974 0.430600 0.046393
v -0.200984 0.424624 -0.046393
v -0.200984 -0.424606 -0.046393
v -0.200984 -0.424606 0.046393
v -0.200984 0.424624 0.046393
v -0.204208 0.418176 -0.046393
v -0.204208 -0.418158 -0.046393
v -0.204208 -0.418158 0.046393
v -0.204208 0.418176 0.046393
v -0.206489 0.411335 -0.046393
v -0.206489 -0.411317 -0.046393
v -0.206489 -0.411317 0.046393
v -0.206489 0.411335 0.046393
v -0.207904 0.404258 -0.046393
v -0.207904 -0.404319 -0.046393
v -0.207904 -0.404319 0.046393
v -0.207904 0.404258 0.046393
v -0.208376 0.397103 -0.046393
v -0.208376 -0.397085 0.046393
v -0.208376 0.397103 0.046393
v -0.208376 -0.397085 -0.046393

# 218 UV coordinates
vt 93.7277 0.469096 0
vt 93.7285 0.099509 0
vt 93.7285 0.465783 0
vt 93.7277 0.096195 0
vt -0.195245 0.100628 0
vt -0.042645 0.466906 0
vt -0.195244 0.466906 0
vt -0.198683 0.46704 0
vt -0.046083 0.470361 0
vt -0.198683 0.470361 0
vt 93.7254 0.472353 0
vt -0.195245 0.097308 0
vt -0.042645 0.100628 0
vt -0.046083 0.46704 0
vt -0.046083 0.473681 0
vt -0.198683 0.473681 0
vt 93.7254 0.092938 0
vt -0.042645 0.097308 0
vt 0.031296 0.538611 0
vt 0.030522 0.908203 0
vt 0.030521 0.541925 0
vt 0.031296 0.911516 0
vt 0.033606 0.914773 0
vt -0.046083 0.477002 0
vt 93.7216 0.475497 0
vt -0.195245 0.093987 0
vt 0.033606 0.535355 0
vt -0.198683 0.477002 0
vt 0.037412 0.53221 0
vt 0.037413 0.917918 0
vt 93.7216 0.089794 0
vt -0.042645 0.093987 0
vt -0.046083 0.480323 0
vt 0.042649 0.529232 0
vt 93.7163 0.478476 0
vt -0.195245 0.090666 0
vt -0.042645 0.090666 0
vt -0.198683 0.480323 0
vt 0.04265 0.920896 0
vt 0.716073 0.006111 0
vt 0.704641 0.047426 0
vt 0.704641 0.006111 0
vt 93.7163 0.086816 0
vt 0.716073 0.047426 0
vt -0.046083 0.483643 0
vt 0.049229 0.923657 0
vt 0.693209 0.047426 0
vt 93.7098 0.481237 0
vt -0.198683 0.483643 0
vt 0.049228 0.526471 0
vt 0.693209 0.006111 0
vt 93.7098 0.084055 0
vt -0.046083 0.486964 0
vt 0.057035 0.523974 0
vt 0.681776 0.047426 0
vt 93.702 0.483733 0
vt -0.198683 0.486964 0
vt 0.057036 0.926153 0
vt 0.681776 0.006111 0
vt 93.702 0.081558 0
vt 0.050224 0.952074 0
vt 0.062066 0.994867 0
vt 0.050225 0.994867 0
vt 0.065939 0.928343 0
vt 0.670344 0.006111 0
vt 93.6931 0.485922 0
vt 0.062066 0.952074 0
vt 0.065938 0.521785 0
vt 0.670344 0.047426 0
vt 93.6931 0.079369 0
vt 0.073907 0.994867 0
vt 0.075784 0.930188 0
vt 0.658912 0.006111 0
vt 93.6832 0.487767 0
vt 0.073907 0.952074 0
vt 0.075784 0.51994 0
vt 0.658912 0.047426 0
vt 93.6832 0.077524 0
vt 0.085748 0.994867 0
vt 0.086404 0.518472 0
vt 0.647479 0.006111 0
vt 93.6726 0.489236 0
vt 0.085748 0.952074 0
vt 0.086405 0.931656 0
vt 0.64748 0.047426 0
vt 93.6726 0.076056 0
vt 0.09759 0.994867 0
vt 0.097617 0.517404 0
vt 0.636047 0.006111 0
vt 93.6614 0.490303 0
vt 0.097589 0.952074 0
vt 0.097617 0.932724 0
vt 0.636047 0.047426 0
vt 93.6614 0.074988 0
vt 0.109431 0.994867 0
vt 0.109231 0.933371 0
vt 0.624615 0.006111 0
vt 93.6498 0.490951 0
vt 0.109431 0.952074 0
vt 0.109231 0.516756 0
vt 0.624615 0.047426 0
vt 93.6498 0.07434 0
vt 0.121272 0.994867 0
vt 0.121046 0.516539 0
vt 0.613183 0.006111 0
vt 93.638 0.491168 0
vt 0.121272 0.952074 0
vt 0.121047 0.933589 0
vt 0.613183 0.047426 0
vt 93.638 0.074123 0
vt 0.625626 0.952074 0
vt 0.625401 0.516539 0
vt 0.126248 0.006111 0
vt 93.1336 0.491168 0
vt 0.625626 0.994867 0
vt 0.625401 0.933589 0
vt 0.126248 0.047426 0
vt 93.1336 0.074123 0
vt 0.637467 0.994867 0
vt 0.637216 0.516756 0
vt 0.114815 0.006111 0
vt 93.1218 0.490951 0
vt 0.637467 0.952074 0
vt 0.637217 0.933371 0
vt 0.114815 0.047426 0
vt 93.1218 0.07434 0
vt 0.649309 0.994867 0
vt 0.64883 0.517404 0
vt 0.103383 0.006111 0
vt 93.1102 0.490303 0
vt 0.649309 0.952074 0
vt 0.648831 0.932724 0
vt 0.103383 0.047426 0
vt 93.1102 0.074988 0
vt 0.66115 0.994867 0
vt 0.660043 0.518472 0
vt 0.091951 0.006111 0
vt 93.099 0.489236 0
vt 0.66115 0.952074 0
vt 0.660044 0.931656 0
vt 0.091951 0.047426 0
vt 93.099 0.076056 0
vt 0.672991 0.994867 0
vt 0.670663 0.51994 0
vt 0.080518 0.006111 0
vt 93.0883 0.487767 0
vt 0.672991 0.952074 0
vt 0.670664 0.930187 0
vt 0.080518 0.047426 0
vt 93.0883 0.077524 0
vt 0.684832 0.994867 0
vt 0.680509 0.521785 0
vt 0.069086 0.006111 0
vt 93.0785 0.485922 0
vt 0.684832 0.952074 0
vt 0.680509 0.928343 0
vt 0.069086 0.047426 0
vt 93.0785 0.079369 0
vt 0.696674 0.994867 0
vt 0.689412 0.926153 0
vt 0.057654 0.006111 0
vt 93.0696 0.483733 0
vt 0.696674 0.952074 0
vt 0.689411 0.523974 0
vt 0.057654 0.047426 0
vt 93.0696 0.081558 0
vt 0.708515 0.952074 0
vt 0.697219 0.526471 0
vt 0.046222 0.047426 0
vt 93.0618 0.481237 0
vt 0.708515 0.994867 0
vt 0.697219 0.923657 0
vt 0.046222 0.006111 0
vt 93.0618 0.084055 0
vt 0.804721 0.922582 0
vt 0.95732 0.925902 0
vt 0.804721 0.925902 0
vt 0.703798 0.529232 0
vt 0.95732 0.529739 0
vt 0.80472 0.526418 0
vt 0.95732 0.526418 0
vt 93.0552 0.478476 0
vt 0.95732 0.922582 0
vt 0.703798 0.920896 0
vt 0.80472 0.529739 0
vt 93.0552 0.086816 0
vt 0.804721 0.919261 0
vt 0.709035 0.53221 0
vt 0.95732 0.533059 0
vt 93.05 0.475497 0
vt 0.95732 0.919261 0
vt 0.709035 0.917918 0
vt 0.80472 0.533059 0
vt 93.05 0.089794 0
vt 0.804721 0.91594 0
vt 0.712841 0.535355 0
vt 0.95732 0.53638 0
vt 93.0462 0.472353 0
vt 0.95732 0.91594 0
vt 0.712842 0.914773 0
vt 0.80472 0.53638 0
vt 93.0462 0.092938 0
vt 0.804721 0.91262 0
vt 0.715151 0.538611 0
vt 0.95732 0.5397 0
vt 93.0439 0.469096 0
vt 0.95732 0.91262 0
vt 0.715152 0.911516 0
vt 0.80472 0.5397 0
vt 93.0439 0.096195 0
vt 0.804721 0.909299 0
vt 0.715926 0.908203 0
vt 0.95732 0.543021 0
vt 93.0431 0.465783 0
vt 0.95732 0.909299 0
vt 0.715926 0.541925 0
vt 0.80472 0.543021 0
vt 93.0431 0.099509 0

# 54 vertex normals
vn 0 0 0.01
vn 0.00999465 -0.00032719 -0
vn 0.00999465 0.00032719 0
vn 0.00991445 0.00130526 0
vn 0.00991445 -0.00130526 -0
vn 0.00965926 0.00258819 0
vn 0 0 -0.01
vn 0.0092388 0.00382683 0
vn 0.00965926 -0.00258819 -0
vn 0.00866025 0.005 0
vn 0.0092388 -0.00382683 -0
vn 0.00866025 -0.005 -0
vn 0.00793353 0.00608761 0
vn 0.00793353 -0.00608761 -0
vn 0.00707107 0.00707107 0
vn 0.00707107 -0.00707107 -0
vn 0.00608761 0.00793353 0
vn 0.00608761 -0.00793353 -0
vn 0.005 0.00866025 0
vn 0.005 -0.00866025 -0
vn 0.00382683 0.0092388 0
vn 0.00382683 -0.0092388 -0
vn 0.00258819 0.00965926 0
vn 0.00258819 -0.00965926 -0
vn 0.00130526 0.00991445 0
vn 0.00130526 -0.00991445 -0
vn 0.00032719 0.00999465 0
vn 0.00032719 -0.00999465 -0
vn -0.00032719 0.00999465 0
vn -0.00032719 -0.00999465 0
vn -0.00130526 0.00991445 0
vn -0.00130526 -0.00991445 0
vn -0.00258819 0.00965926 0
vn -0.00258819 -0.00965926 0
vn -0.00382683 0.0092388 0
vn -0.00382683 -0.0092388 0
vn -0.005 0.00866025 0
vn -0.005 -0.00866025 0
vn -0.00608761 0.00793353 0
vn -0.00608761 -0.00793353 0
vn -0.00707107 0.00707107 0
vn -0.00707107 -0.00707107 0
vn -0.00793353 0.00608761 0
vn -0.00793353 -0.00608761 0
vn -0.00866025 0.005 0
vn -0.00866025 -0.005 0
vn -0.0092388 0.00382683 0
vn -0.0092388 -0.00382683 0
vn -0.00965926 0.00258819 0
vn -0.00965926 -0.00258819 0
vn -0.00991445 0.00130526 0
vn -0.00991445 -0.00130526 0
vn -0.00999465 0.00032719 0
vn -0.00999465 -0.00032719 0

# Mesh 'mesh1_mesh1-geometry' with 204 faces
g mesh1_mesh1-geometry
usemtl material_0_1_8
f  1/1/1 2/2/1 3/3/1
f  2/2/1 1/1/1 4/4/1
f  2/5/2 5/6/3 3/7/3
f  3/8/3 6/9/4 1/10/4
f  4/4/1 1/1/1 7/11/1
f  4/12/5 8/13/2 2/5/2
f  5/6/3 2/5/2 8/13/2
f  6/9/4 3/8/3 5/14/3
f  9/15/6 1/10/4 6/9/4
f  1/10/4 9/15/6 7/16/6
f  4/4/1 7/11/1 10/17/1
f  8/13/2 4/12/5 11/18/5
f  11/19/7 5/20/7 8/21/7
f  5/20/7 11/19/7 6/22/7
f  6/22/7 11/19/7 9/23/7
f  12/24/8 7/16/6 9/15/6
f  10/17/1 7/11/1 13/25/1
f  10/26/9 11/18/5 4/12/5
f  9/23/7 11/19/7 14/27/7
f  7/16/6 12/24/8 13/28/8
f  9/23/7 15/29/7 12/30/7
f  10/17/1 13/25/1 16/31/1
f  11/18/5 10/26/9 14/32/9
f  9/23/7 14/27/7 15/29/7
f  17/33/10 13/28/8 12/24/8
f  12/30/7 15/29/7 18/34/7
f  16/31/1 13/25/1 19/35/1
f  16/36/11 14/32/9 10/26/9
f  14/32/9 16/36/11 15/37/11
f  13/28/8 17/33/10 19/38/10
f  12/30/7 18/34/7 17/39/7
f  15/40/11 20/41/12 18/42/12
f  16/31/1 19/35/1 20/43/1
f  20/41/12 15/40/11 16/44/11
f  21/45/13 19/38/10 17/33/10
f  17/39/7 18/34/7 21/46/7
f  22/47/14 18/42/12 20/41/12
f  20/43/1 19/35/1 23/48/1
f  19/38/10 21/45/13 23/49/13
f  21/46/7 18/34/7 24/50/7
f  18/42/12 22/47/14 24/51/14
f  20/43/1 23/48/1 22/52/1
f  25/53/15 23/49/13 21/45/13
f  21/46/7 24/50/7 26/54/7
f  27/55/16 24/51/14 22/47/14
f  22/52/1 23/48/1 28/56/1
f  23/49/13 25/53/15 28/57/15
f  21/46/7 26/54/7 25/58/7
f  24/51/14 27/55/16 26/59/16
f  22/52/1 28/56/1 27/60/1
f  25/61/15 29/62/17 28/63/15
f  25/58/7 26/54/7 30/64/7
f  27/55/16 31/65/18 26/59/16
f  27/60/1 28/56/1 29/66/1
f  29/62/17 25/61/15 30/67/17
f  30/64/7 26/54/7 31/68/7
f  31/65/18 27/55/16 32/69/18
f  27/60/1 29/66/1 32/70/1
f  30/67/17 33/71/19 29/62/17
f  30/64/7 31/68/7 34/72/7
f  32/69/18 35/73/20 31/65/18
f  32/70/1 29/66/1 33/74/1
f  33/71/19 30/67/17 34/75/19
f  34/72/7 31/68/7 35/76/7
f  35/73/20 32/69/18 36/77/20
f  32/70/1 33/74/1 36/78/1
f  34/75/19 37/79/21 33/71/19
f  34/72/7 35/76/7 38/80/7
f  36/77/20 38/81/22 35/73/20
f  36/78/1 33/74/1 37/82/1
f  37/79/21 34/75/19 39/83/21
f  34/72/7 38/80/7 39/84/7
f  38/81/22 36/77/20 40/85/22
f  36/78/1 37/82/1 40/86/1
f  39/83/21 41/87/23 37/79/21
f  39/84/7 38/80/7 42/88/7
f  40/85/22 42/89/24 38/81/22
f  40/86/1 37/82/1 41/90/1
f  41/87/23 39/83/21 43/91/23
f  39/84/7 42/88/7 43/92/7
f  42/89/24 40/85/22 44/93/24
f  40/86/1 41/90/1 44/94/1
f  43/91/23 45/95/25 41/87/23
f  43/92/7 42/88/7 46/96/7
f  44/93/24 47/97/26 42/89/24
f  44/94/1 41/90/1 45/98/1
f  45/95/25 43/91/23 46/99/25
f  46/96/7 42/88/7 47/100/7
f  47/97/26 44/93/24 48/101/26
f  44/94/1 45/98/1 48/102/1
f  46/99/25 49/103/27 45/95/25
f  46/96/7 47/100/7 50/104/7
f  48/101/26 50/105/28 47/97/26
f  48/102/1 45/98/1 49/106/1
f  49/103/27 46/99/25 51/107/27
f  46/96/7 50/104/7 51/108/7
f  50/105/28 48/101/26 52/109/28
f  48/102/1 49/106/1 52/110/1
f  53/111/29 49/103/27 51/107/27
f  51/108/7 50/104/7 54/112/7
f  52/109/28 54/113/30 50/105/28
f  52/110/1 49/106/1 55/114/1
f  49/103/27 53/111/29 55/115/29
f  51/108/7 54/112/7 53/116/7
f  54/113/30 52/109/28 56/117/30
f  52/110/1 55/114/1 56/118/1
f  53/111/29 57/119/31 55/115/29
f  53/116/7 54/112/7 58/120/7
f  56/117/30 58/121/32 54/113/30
f  56/118/1 55/114/1 57/122/1
f  57/119/31 53/111/29 59/123/31
f  53/116/7 58/120/7 59/124/7
f  58/121/32 56/117/30 60/125/32
f  56/118/1 57/122/1 60/126/1
f  59/123/31 61/127/33 57/119/31
f  59/124/7 58/120/7 62/128/7
f  60/125/32 62/129/34 58/121/32
f  60/126/1 57/122/1 61/130/1
f  61/127/33 59/123/31 63/131/33
f  59/124/7 62/128/7 63/132/7
f  62/129/34 60/125/32 64/133/34
f  60/126/1 61/130/1 64/134/1
f  63/131/33 65/135/35 61/127/33
f  63/132/7 62/128/7 66/136/7
f  64/133/34 66/137/36 62/129/34
f  64/134/1 61/130/1 65/138/1
f  65/135/35 63/131/33 67/139/35
f  63/132/7 66/136/7 67/140/7
f  66/137/36 64/133/34 68/141/36
f  64/134/1 65/138/1 68/142/1
f  67/139/35 69/143/37 65/135/35
f  67/140/7 66/136/7 70/144/7
f  68/141/36 70/145/38 66/137/36
f  68/142/1 65/138/1 69/146/1
f  69/143/37 67/139/35 71/147/37
f  67/140/7 70/144/7 71/148/7
f  70/145/38 68/141/36 72/149/38
f  68/142/1 69/146/1 72/150/1
f  71/147/37 73/151/39 69/143/37
f  71/148/7 70/144/7 74/152/7
f  72/149/38 74/153/40 70/145/38
f  72/150/1 69/146/1 73/154/1
f  73/151/39 71/147/37 75/155/39
f  71/148/7 74/152/7 75/156/7
f  74/153/40 72/149/38 76/157/40
f  72/150/1 73/154/1 76/158/1
f  75/155/39 77/159/41 73/151/39
f  75/156/7 74/152/7 78/160/7
f  76/157/40 79/161/42 74/153/40
f  76/158/1 73/154/1 77/162/1
f  77/159/41 75/155/39 78/163/41
f  78/160/7 74/152/7 79/164/7
f  79/161/42 76/157/40 80/165/42
f  76/158/1 77/162/1 80/166/1
f  81/167/43 77/159/41 78/163/41
f  78/160/7 79/164/7 82/168/7
f  83/169/44 79/161/42 80/165/42
f  80/166/1 77/162/1 84/170/1
f  77/159/41 81/167/43 84/171/43
f  78/160/7 82/168/7 81/172/7
f  79/161/42 83/169/44 82/173/44
f  80/166/1 84/170/1 83/174/1
f  85/175/45 84/176/43 81/177/43
f  81/172/7 82/168/7 86/178/7
f  87/179/46 82/180/44 83/181/44
f  83/174/1 84/170/1 88/182/1
f  84/176/43 85/175/45 88/183/45
f  81/172/7 86/178/7 85/184/7
f  82/180/44 87/179/46 86/185/46
f  83/174/1 88/182/1 87/186/1
f  89/187/47 88/183/45 85/175/45
f  85/184/7 86/178/7 90/188/7
f  91/189/48 86/185/46 87/179/46
f  87/186/1 88/182/1 92/190/1
f  88/183/45 89/187/47 92/191/47
f  85/184/7 90/188/7 89/192/7
f  86/185/46 91/189/48 90/193/48
f  87/186/1 92/190/1 91/194/1
f  93/195/49 92/191/47 89/187/47
f  89/192/7 90/188/7 94/196/7
f  95/197/50 90/193/48 91/189/48
f  91/194/1 92/190/1 96/198/1
f  92/191/47 93/195/49 96/199/49
f  89/192/7 94/196/7 93/200/7
f  90/193/48 95/197/50 94/201/50
f  91/194/1 96/198/1 95/202/1
f  97/203/51 96/199/49 93/195/49
f  93/200/7 94/196/7 98/204/7
f  99/205/52 94/201/50 95/197/50
f  95/202/1 96/198/1 100/206/1
f  96/199/49 97/203/51 100/207/51
f  93/200/7 98/204/7 97/208/7
f  94/201/50 99/205/52 98/209/52
f  95/202/1 100/206/1 99/210/1
f  101/211/53 100/207/51 97/203/51
f  97/208/7 98/204/7 101/212/7
f  102/213/54 98/209/52 99/205/52
f  99/210/1 100/206/1 103/214/1
f  100/207/51 101/211/53 103/215/53
f  101/212/7 98/204/7 104/216/7
f  98/209/52 102/213/54 104/217/54
f  99/210/1 103/214/1 102/218/1
f  104/217/54 103/215/53 101/211/53
f  103/215/53 104/217/54 102/213/54

# Mesh 'mesh1_mesh1-geometry' with 204 faces
g mesh1_mesh1-geometry
usemtl material_1_24
f  3//7 2//7 1//7
f  4//7 1//7 2//7
f  3//54 5//54 2//53
f  1//52 6//52 3//54
f  7//7 1//7 4//7
f  2//53 8//53 4//51
f  8//53 2//53 5//54
f  5//54 3//54 6//52
f  6//52 1//52 9//50
f  7//50 9//50 1//52
f  10//7 7//7 4//7
f  11//51 4//51 8//53
f  8//1 5//1 11//1
f  6//1 11//1 5//1
f  9//1 11//1 6//1
f  9//50 7//50 12//48
f  13//7 7//7 10//7
f  4//51 11//51 10//49
f  14//1 11//1 9//1
f  13//48 12//48 7//50
f  12//1 15//1 9//1
f  16//7 13//7 10//7
f  14//49 10//49 11//51
f  15//1 14//1 9//1
f  12//48 13//48 17//46
f  18//1 15//1 12//1
f  19//7 13//7 16//7
f  10//49 14//49 16//47
f  15//47 16//47 14//49
f  19//46 17//46 13//48
f  17//1 18//1 12//1
f  18//45 20//45 15//47
f  20//7 19//7 16//7
f  16//47 15//47 20//45
f  17//46 19//46 21//44
f  21//1 18//1 17//1
f  20//45 18//45 22//43
f  23//7 19//7 20//7
f  23//44 21//44 19//46
f  24//1 18//1 21//1
f  24//43 22//43 18//45
f  22//7 23//7 20//7
f  21//44 23//44 25//42
f  26//1 24//1 21//1
f  22//43 24//43 27//41
f  28//7 23//7 22//7
f  28//42 25//42 23//44
f  25//1 26//1 21//1
f  26//41 27//41 24//43
f  27//7 28//7 22//7
f  28//42 29//40 25//42
f  30//1 26//1 25//1
f  26//41 31//39 27//41
f  29//7 28//7 27//7
f  30//40 25//42 29//40
f  31//1 26//1 30//1
f  32//39 27//41 31//39
f  32//7 29//7 27//7
f  29//40 33//38 30//40
f  34//1 31//1 30//1
f  31//39 35//37 32//39
f  33//7 29//7 32//7
f  34//38 30//40 33//38
f  35//1 31//1 34//1
f  36//37 32//39 35//37
f  36//7 33//7 32//7
f  33//38 37//36 34//38
f  38//1 35//1 34//1
f  35//37 38//35 36//37
f  37//7 33//7 36//7
f  39//36 34//38 37//36
f  39//1 38//1 34//1
f  40//35 36//37 38//35
f  40//7 37//7 36//7
f  37//36 41//34 39//36
f  42//1 38//1 39//1
f  38//35 42//33 40//35
f  41//7 37//7 40//7
f  43//34 39//36 41//34
f  43//1 42//1 39//1
f  44//33 40//35 42//33
f  44//7 41//7 40//7
f  41//34 45//32 43//34
f  46//1 42//1 43//1
f  42//33 47//31 44//33
f  45//7 41//7 44//7
f  46//32 43//34 45//32
f  47//1 42//1 46//1
f  48//31 44//33 47//31
f  48//7 45//7 44//7
f  45//32 49//30 46//32
f  50//1 47//1 46//1
f  47//31 50//29 48//31
f  49//7 45//7 48//7
f  51//30 46//32 49//30
f  51//1 50//1 46//1
f  52//29 48//31 50//29
f  52//7 49//7 48//7
f  51//30 49//30 53//28
f  54//1 50//1 51//1
f  50//29 54//27 52//29
f  55//7 49//7 52//7
f  55//28 53//28 49//30
f  53//1 54//1 51//1
f  56//27 52//29 54//27
f  56//7 55//7 52//7
f  55//28 57//26 53//28
f  58//1 54//1 53//1
f  54//27 58//25 56//27
f  57//7 55//7 56//7
f  59//26 53//28 57//26
f  59//1 58//1 53//1
f  60//25 56//27 58//25
f  60//7 57//7 56//7
f  57//26 61//24 59//26
f  62//1 58//1 59//1
f  58//25 62//23 60//25
f  61//7 57//7 60//7
f  63//24 59//26 61//24
f  63//1 62//1 59//1
f  64//23 60//25 62//23
f  64//7 61//7 60//7
f  61//24 65//22 63//24
f  66//1 62//1 63//1
f  62//23 66//21 64//23
f  65//7 61//7 64//7
f  67//22 63//24 65//22
f  67//1 66//1 63//1
f  68//21 64//23 66//21
f  68//7 65//7 64//7
f  65//22 69//20 67//22
f  70//1 66//1 67//1
f  66//21 70//19 68//21
f  69//7 65//7 68//7
f  71//20 67//22 69//20
f  71//1 70//1 67//1
f  72//19 68//21 70//19
f  72//7 69//7 68//7
f  69//20 73//18 71//20
f  74//1 70//1 71//1
f  70//19 74//17 72//19
f  73//7 69//7 72//7
f  75//18 71//20 73//18
f  75//1 74//1 71//1
f  76//17 72//19 74//17
f  76//7 73//7 72//7
f  73//18 77//16 75//18
f  78//1 74//1 75//1
f  74//17 79//15 76//17
f  77//7 73//7 76//7
f  78//16 75//18 77//16
f  79//1 74//1 78//1
f  80//15 76//17 79//15
f  80//7 77//7 76//7
f  78//16 77//16 81//14
f  82//1 79//1 78//1
f  80//15 79//15 83//13
f  84//7 77//7 80//7
f  84//14 81//14 77//16
f  81//1 82//1 78//1
f  82//13 83//13 79//15
f  83//7 84//7 80//7
f  81//14 84//14 85//12
f  86//1 82//1 81//1
f  83//13 82//13 87//10
f  88//7 84//7 83//7
f  88//12 85//12 84//14
f  85//1 86//1 81//1
f  86//10 87//10 82//13
f  87//7 88//7 83//7
f  85//12 88//12 89//11
f  90//1 86//1 85//1
f  87//10 86//10 91//8
f  92//7 88//7 87//7
f  92//11 89//11 88//12
f  89//1 90//1 85//1
f  90//8 91//8 86//10
f  91//7 92//7 87//7
f  89//11 92//11 93//9
f  94//1 90//1 89//1
f  91//8 90//8 95//6
f  96//7 92//7 91//7
f  96//9 93//9 92//11
f  93//1 94//1 89//1
f  94//6 95//6 90//8
f  95//7 96//7 91//7
f  93//9 96//9 97//5
f  98//1 94//1 93//1
f  95//6 94//6 99//4
f  100//7 96//7 95//7
f  100//5 97//5 96//9
f  97//1 98//1 93//1
f  98//4 99//4 94//6
f  99//7 100//7 95//7
f  97//5 100//5 101//2
f  101//1 98//1 97//1
f  99//4 98//4 102//3
f  103//7 100//7 99//7
f  103//2 101//2 100//5
f  104//1 98//1 101//1
f  104//3 102//3 98//4
f  102//7 103//7 99//7
f  101//2 103//2 104//3
f  102//3 104//3 103//2

