# File produced by Open Asset Import Library (http://www.assimp.sf.net)
# (assimp v3.2.202087883)

mtllib model_normalized.mtl

# 59 vertex positions
v -0.158574 0.322890 0.310250
v -0.058534 -0.312894 0.373227
v -0.058534 0.322890 0.373227
v -0.158574 -0.312894 0.310250
v -0.000776 -0.312894 0.373227
v -0.216332 -0.312894 0.201178
v -0.000776 0.322890 0.373227
v -0.216332 0.322890 0.201178
v -0.000776 -0.312894 0.138213
v 0.056983 -0.312894 0.373227
v -0.216332 -0.312894 0.138213
v 0.056983 0.322890 0.373227
v -0.216332 0.322890 0.138213
v -0.216332 -0.312894 0.075235
v 0.157022 -0.312894 0.310250
v -0.000776 -0.312894 -0.096802
v 0.214780 -0.312894 0.201178
v 0.157022 0.322890 0.310250
v -0.216332 0.322890 0.075235
v -0.158574 -0.312894 -0.033837
v 0.214780 -0.312894 0.138213
v 0.214780 0.322890 0.201178
v -0.058534 -0.312894 -0.096802
v 0.214780 -0.312894 0.075235
v 0.214780 0.322890 0.138213
v -0.158574 0.322890 -0.033837
v -0.058534 0.322890 -0.096802
v -0.000776 -0.227966 -0.096802
v 0.157022 -0.312894 -0.033837
v 0.214780 0.322890 0.075235
v -0.030509 0.239732 -0.096802
v -0.030509 -0.227966 -0.096802
v 0.033119 -0.227966 -0.096802
v 0.056983 -0.312894 -0.096802
v 0.157022 0.322890 -0.033837
v -0.000776 0.322890 -0.096802
v -0.030509 -0.227966 -0.213946
v -0.000776 -0.168361 -0.096802
v 0.001305 -0.164189 -0.096802
v -0.000776 0.239732 -0.096802
v 0.056983 0.322890 -0.096802
v 0.033119 -0.227966 -0.213946
v 0.001305 -0.164189 -0.189066
v 0.033119 0.239732 -0.096802
v 0.033119 0.239732 -0.213946
v -0.000776 0.180127 -0.096802
v 0.001305 0.175955 -0.096802
v 0.033119 -0.171621 -0.267024
v -0.030509 0.239732 -0.213946
v -0.030509 -0.171621 -0.267024
v -0.030509 0.183388 -0.267024
v 0.001305 0.175955 -0.189066
v 0.001305 -0.145203 -0.206950
v 0.033119 0.183388 -0.267024
v 0.001305 0.156970 -0.206950
v 0.001305 -0.196078 -0.201506
v 0.001305 -0.158412 -0.236987
v 0.001305 0.170179 -0.236987
v 0.001305 0.207844 -0.201506

# 0 UV coordinates

# 50 vertex normals
vn -0.0186196 0 0.0172763
vn -0.00704151 0 0.0244044
vn 0.00704151 0 -0.0244044
vn 0.0186196 0 -0.0172763
vn 0 0 0.0254
vn 0 0 -0.0254
vn -0.0246507 0 0.00612399
vn 0.0246507 0 -0.00612399
vn 0 -0.0254 0
vn 0 0.0254 0
vn 0.00704151 0 0.0244044
vn -0.00704151 0 -0.0244044
vn -0.0254 0 0
vn 0.0254 -0 0
vn 0.0186196 0 0.0172763
vn -0.0186196 0 -0.0172763
vn -0.0246507 0 -0.00612399
vn 0.0246507 -0 0.00612399
vn -0.022123 -0.0114782 -0.0048972
vn -0.0216003 -0.0133637 0
vn 0.0216003 -0.0133637 -0
vn -0.0227291 0.0113379 0
vn 0.022123 -0.0114782 -0.0048972
vn 0 0.0232653 0.0101925
vn 0.022123 0.0114782 -0.0048972
vn -0.0216003 0.0133637 0
vn 0.0221299 -0.00464353 -0.01157
vn 0.0216003 0.0133637 0
vn -0.022123 0.0114782 -0.0048972
vn -0.0227291 -0.0113379 0
vn -0.0221299 -0.00464353 -0.01157
vn -0.0221299 0.00464353 -0.01157
vn -0 -0.0232653 0.0101925
vn 0 0.00926198 0.0236511
vn 0.0221299 0.00464353 -0.01157
vn -0 -0.00926198 0.0236511
vn 0.022123 0.0114782 0.0048972
vn 0.0227291 -0.0113379 0
vn -0.022123 0.0114782 0.0048972
vn 0 -0.0232653 -0.0101925
vn -0.022123 -0.0114782 0.0048972
vn -0.0221299 0.00464353 0.01157
vn 0.022123 -0.0114782 0.0048972
vn 0.0227291 0.0113379 0
vn 0.0221299 0.00464353 0.01157
vn 0.0221299 -0.00464353 0.01157
vn 0 0.0232653 -0.0101925
vn 0 -0.00926198 -0.0236511
vn -0.0221299 -0.00464353 0.01157
vn 0 0.00926198 -0.0236511

# Mesh 'mesh1_mesh1-geometry' with 170 faces
g mesh1_mesh1-geometry
usemtl material_0_24
f  1//1 2//2 3//2
f  2//2 1//1 4//1
f  3//3 2//3 1//4
f  4//4 1//4 2//3
f  5//5 3//2 2//2
f  2//3 3//3 5//6
f  1//1 6//7 4//1
f  4//4 6//8 1//4
f  4//9 5//9 2//9
f  2//10 5//10 4//10
f  3//2 5//5 7//5
f  7//6 5//6 3//3
f  6//7 1//1 8//7
f  8//8 1//4 6//8
f  9//9 4//9 6//9
f  6//10 4//10 9//10
f  5//9 4//9 9//9
f  9//10 4//10 5//10
f  10//11 7//5 5//5
f  5//6 7//6 10//12
f  8//7 11//13 6//7
f  6//8 11//14 8//8
f  9//9 6//9 11//9
f  11//10 6//10 9//10
f  9//9 10//9 5//9
f  5//10 10//10 9//10
f  7//5 10//11 12//11
f  12//12 10//12 7//6
f  11//13 8//7 13//13
f  13//14 8//8 11//14
f  14//9 9//9 11//9
f  11//10 9//10 14//10
f  10//9 9//9 15//9
f  15//10 9//10 10//10
f  15//15 12//11 10//11
f  10//12 12//12 15//16
f  13//13 14//17 11//13
f  11//14 14//18 13//14
f  9//9 14//9 16//9
f  16//10 14//10 9//10
f  15//9 9//9 17//9
f  17//10 9//10 15//10
f  12//11 15//15 18//15
f  18//16 15//16 12//12
f  14//17 13//13 19//17
f  19//18 13//14 14//18
f  16//9 14//9 20//9
f  20//10 14//10 16//10
f  16//9 21//9 9//9
f  9//10 21//10 16//10
f  17//9 9//9 21//9
f  21//10 9//10 17//10
f  22//18 15//15 17//18
f  17//17 15//16 22//17
f  15//15 22//18 18//15
f  18//16 22//17 15//16
f  19//17 20//16 14//17
f  14//18 20//15 19//18
f  16//9 20//9 23//9
f  23//10 20//10 16//10
f  21//9 16//9 24//9
f  24//10 16//10 21//10
f  25//14 17//18 21//14
f  21//13 17//17 25//13
f  17//18 25//14 22//18
f  22//17 25//13 17//17
f  20//16 19//17 26//16
f  26//15 19//18 20//15
f  20//16 27//12 23//12
f  23//11 27//11 20//15
f  23//12 28//6 16//6
f  16//5 28//5 23//11
f  24//9 16//9 29//9
f  29//10 16//10 24//10
f  30//8 21//14 24//8
f  24//7 21//13 30//7
f  21//14 30//8 25//14
f  25//13 30//7 21//13
f  27//12 20//16 26//16
f  26//15 20//15 27//11
f  27//12 31//6 23//12
f  23//11 31//5 27//11
f  28//6 23//12 32//6
f  32//5 23//11 28//5
f  33//6 16//6 28//6
f  28//5 16//5 33//5
f  29//9 16//9 34//9
f  34//10 16//10 29//10
f  35//4 24//8 29//4
f  29//1 24//7 35//1
f  24//8 35//4 30//8
f  30//7 35//1 24//7
f  36//6 31//6 27//12
f  27//11 31//5 36//5
f  32//6 23//12 31//6
f  31//5 23//11 32//5
f  37//19 28//9 32//20
f  32//6 38//6 28//6
f  28//5 38//5 32//5
f  33//6 34//3 16//6
f  16//5 34//2 33//5
f  28//9 37//19 33//21
f  28//6 39//6 33//6
f  33//5 39//5 28//5
f  34//3 35//4 29//4
f  29//1 35//1 34//2
f  31//6 36//6 40//6
f  40//5 36//5 31//5
f  31//6 38//6 32//6
f  32//5 38//5 31//5
f  38//22 37//19 32//20
f  39//6 28//6 38//6
f  38//5 28//5 39//5
f  34//3 33//6 41//3
f  41//2 33//5 34//2
f  33//21 37//19 42//23
f  33//21 43//24 39//10
f  39//6 44//6 33//6
f  33//5 44//5 39//5
f  35//4 34//3 41//3
f  41//2 34//2 35//1
f  36//6 44//6 40//6
f  40//5 44//5 36//5
f  40//10 45//25 31//26
f  31//6 40//6 46//6
f  46//5 40//5 31//5
f  38//6 31//6 46//6
f  46//5 31//5 38//5
f  37//19 38//22 43//24
f  43//24 38//22 39//10
f  47//6 39//6 38//6
f  38//5 39//5 47//5
f  44//6 41//3 33//6
f  33//5 41//2 44//5
f  37//19 48//27 42//23
f  43//24 33//21 42//23
f  44//6 39//6 47//6
f  47//5 39//5 44//5
f  41//3 44//6 36//6
f  36//5 44//5 41//2
f  45//25 40//10 44//28
f  47//6 40//6 44//6
f  44//5 40//5 47//5
f  31//26 45//25 49//29
f  40//6 47//6 46//6
f  46//5 47//5 40//5
f  49//29 46//30 31//26
f  47//6 38//6 46//6
f  46//5 38//5 47//5
f  43//24 50//31 37//19
f  48//27 37//19 50//31
f  48//27 43//24 42//23
f  47//9 45//25 44//28
f  45//25 51//32 49//29
f  46//30 52//33 47//9
f  52//33 46//30 49//29
f  50//31 43//24 53//34
f  50//31 54//35 48//27
f  43//24 48//27 53//34
f  45//25 47//9 52//33
f  51//32 45//25 54//35
f  51//32 52//33 49//29
f  53//34 51//32 50//31
f  54//35 50//31 51//32
f  54//35 53//34 48//27
f  52//33 54//35 45//25
f  52//33 51//32 55//36
f  51//32 53//34 55//36
f  53//34 54//35 55//36
f  54//35 52//33 55//36

# Mesh 'mesh1_mesh1-geometry' with 34 faces
g mesh1_mesh1-geometry
usemtl material_1_24
f  32//28 28//10 37//37
f  33//26 37//37 28//10
f  32//28 37//37 38//38
f  42//39 37//37 33//26
f  39//9 43//40 33//26
f  31//21 45//41 40//9
f  43//40 38//38 37//37
f  39//9 38//38 43//40
f  42//39 48//42 37//37
f  42//39 33//26 43//40
f  44//20 40//9 45//41
f  49//43 45//41 31//21
f  31//21 46//44 49//43
f  37//37 50//45 43//40
f  50//45 37//37 48//42
f  42//39 43//40 48//42
f  44//20 45//41 47//10
f  49//43 51//46 45//41
f  47//10 52//47 46//44
f  49//43 46//44 52//47
f  53//48 43//40 50//45
f  48//42 54//49 50//45
f  53//48 48//42 43//40
f  52//47 47//10 45//41
f  54//49 45//41 51//46
f  49//43 52//47 51//46
f  50//45 51//46 53//48
f  51//46 50//45 54//49
f  48//42 53//48 54//49
f  45//41 54//49 52//47
f  55//50 51//46 52//47
f  55//50 53//48 51//46
f  55//50 54//49 53//48
f  55//50 52//47 54//49

# Mesh 'mesh2_mesh2-geometry' with 3 faces
g mesh2_mesh2-geometry
usemtl material_1_0
l  56 57
l  58 57
l  59 58

