# Created by Open3D 
# object name: mug3
# number of vertices: 162
# number of triangles: 204
v -0.0236697 -0.0385722 0.0476838
vn -0.736894 -0.676009 3.70058e-17
v -0.00866363 -0.0480189 -0.0476838
vn -0.431198 -0.902257 8.18899e-17
v -0.00866363 -0.0480189 0.0476838
vn -0.280201 -0.959941 1.04115e-16
v -0.0236697 -0.0385722 -0.0476838
vn -0.736699 -0.676221 7.14488e-17
v -0.00866363 -0.0480189 0.0476838
vn 0.280201 0.959941 -1.04115e-16
v -0.00866363 -0.0480189 -0.0476838
vn 0.431198 0.902257 -8.18899e-17
v -0.0236697 -0.0385722 0.0476838
vn 0.736894 0.676009 -3.70058e-17
v -0.0236697 -0.0385722 -0.0476838
vn 0.736699 0.676221 -7.14488e-17
v 6.98229e-08 -0.0480189 -0.0476838
vn 0 -1 1.26748e-16
v 6.98229e-08 -0.0480189 -0.0476838
vn 0 1 -1.26748e-16
v -0.0323334 -0.0222114 -0.0476838
vn -0.927425 -0.37401 3.13001e-17
v -0.0323334 -0.0222114 -0.0476838
vn 0.927425 0.37401 -3.13001e-17
v -0.0236697 -0.0385722 -0.0476838
vn 0 -1.56173e-16 -1
v 6.98229e-08 -0.0480189 -0.0476838
vn 0 -1.67271e-16 -1
v -0.00866363 -0.0480189 -0.0476838
vn 0 -2.17773e-16 -1
v -0.00866363 -0.0480189 -0.0476838
vn 0 2.17773e-16 1
v 6.98229e-08 -0.0480189 -0.0476838
vn 0 1.67271e-16 1
v -0.0236697 -0.0385722 -0.0476838
vn 0 1.56173e-16 1
v 6.98229e-08 -0.0480189 0.0476838
vn 0 -1 1.26748e-16
v 6.98229e-08 -0.0480189 0.0476838
vn 0 1 -1.26748e-16
v -0.0323334 -0.0222114 0.0476838
vn -0.97106 -0.238834 2.46083e-17
v -0.0323334 -0.0222114 0.0476838
vn 0.97106 0.238834 -2.46083e-17
v 6.98229e-08 -0.0127667 -0.0476838
vn 0 -6.02271e-17 -1
v -0.0323334 -0.0222114 -0.0476838
vn 0 -1.79311e-16 -1
v -0.0323334 -0.0222114 -0.0476838
vn 0 1.79311e-16 1
v 6.98229e-08 -0.0127667 -0.0476838
vn 0 6.02271e-17 1
v 0.0086639 -0.0480189 -0.0476838
vn 0.2802 -0.959942 1.04115e-16
v 0.0086639 -0.0480189 -0.0476838
vn -0.2802 0.959942 -1.04115e-16
v -0.0323334 -0.0127667 -0.0476838
vn -1 0 0
v -0.0323334 -0.0127667 -0.0476838
vn 1 0 0
v -0.0323334 -0.0127667 -0.0476838
vn 0 -1.92379e-16 -1
v -0.0323334 -0.0127667 -0.0476838
vn 0 1.92379e-16 1
v 0.0086639 -0.0480189 -0.0476838
vn 0 -1.7931e-16 -1
v 0.0086639 -0.0480189 -0.0476838
vn 0 1.7931e-16 1
v 0.0086639 -0.0480189 0.0476838
vn 0.4312 -0.902256 8.18909e-17
v 0.0086639 -0.0480189 0.0476838
vn -0.4312 0.902256 -8.18909e-17
v -0.0323334 -0.0127667 0.0476838
vn -1 0 0
v -0.0323334 -0.0127667 0.0476838
vn 1 0 0
v -0.0323334 -0.0033201 -0.0476838
vn 0 -1.48592e-16 -1
v -0.0323334 -0.0033201 -0.0476838
vn 0 1.48592e-16 1
v 0.0236697 -0.0385722 -0.0476838
vn 0 -1.67271e-16 -1
v 0.0236697 -0.0385722 -0.0476838
vn 0 1.67271e-16 1
v 0.0236697 -0.0385722 -0.0476838
vn 0.736897 -0.676005 3.7006e-17
v 0.0236697 -0.0385722 -0.0476838
vn -0.736897 0.676005 -3.7006e-17
v -0.0323334 -0.0033201 -0.0476838
vn -0.971066 0.238811 -2.46041e-17
v -0.0323334 -0.0033201 -0.0476838
vn 0.971066 -0.238811 2.46041e-17
v 6.98229e-08 0.0224856 -0.0476838
vn 0 -1.05167e-16 -1
v 6.98229e-08 0.0224856 -0.0476838
vn 0 1.05167e-16 1
v 0.0323334 -0.0222114 -0.0476838
vn 0 -1.79311e-16 -1
v 0.0323334 -0.0222114 -0.0476838
vn 0 1.79311e-16 1
v 0.0236697 -0.0385722 0.0476838
vn 0.736701 -0.676218 7.14482e-17
v 0.0236697 -0.0385722 0.0476838
vn -0.736701 0.676218 -7.14482e-17
v -0.0323334 -0.0033201 0.0476838
vn -0.927431 0.373995 -3.12979e-17
v -0.0323334 -0.0033201 0.0476838
vn 0.927431 -0.373995 3.12979e-17
v -0.0236697 0.0130407 -0.0476838
vn 0 -2.02663e-16 -1
v -0.0236697 0.0130407 -0.0476838
vn 0 2.02663e-16 1
v 0.0323334 -0.0127667 -0.0476838
vn 0 -1.48595e-16 -1
v 0.0323334 -0.0127667 -0.0476838
vn 0 1.48595e-16 1
v 0.0323334 -0.0222114 0.0476838
vn 0.927425 -0.37401 3.13001e-17
v 0.0323334 -0.0222114 -0.0476838
vn 0.97106 -0.238834 2.46083e-17
v 0.0323334 -0.0222114 -0.0476838
vn -0.97106 0.238834 -2.46083e-17
v 0.0323334 -0.0222114 0.0476838
vn -0.927425 0.37401 -3.13001e-17
v -0.0236697 0.0130407 -0.0476838
vn -0.736871 0.676034 -3.70087e-17
v -0.0236697 0.0130407 -0.0476838
vn 0.736871 -0.676034 3.70087e-17
v -0.00866363 0.0224856 -0.0476838
vn 0 -2.17773e-16 -1
v -0.00866363 0.0224856 -0.0476838
vn 0 2.17773e-16 1
v 0.0323334 -0.0033201 -0.0476838
vn 0 -1.92378e-16 -1
v 0.0323334 -0.0033201 -0.0476838
vn 0 1.92378e-16 1
v 0.0323334 -0.0127667 0.0476838
vn 1 0 0
v 0.0323334 -0.0127667 -0.0476838
vn 1 0 0
v 0.0323334 -0.0127667 -0.0476838
vn -1 0 0
v 0.0323334 -0.0127667 0.0476838
vn -1 0 0
v -0.0236697 0.0130407 0.0476838
vn -0.736676 0.676246 -7.1453e-17
v -0.0236697 0.0130407 0.0476838
vn 0.736676 -0.676246 7.1453e-17
v -0.00866363 0.0224856 0.0476838
vn -0.460957 0.887422 -8.54991e-17
v -0.00866363 0.0224856 -0.0476838
vn -0.356104 0.934446 -1.19144e-16
v -0.00866363 0.0224856 -0.0476838
vn 0.356104 -0.934446 1.19144e-16
v -0.00866363 0.0224856 0.0476838
vn 0.460957 -0.887422 8.54991e-17
v 6.98229e-08 0.0224856 -0.0349446
vn 0 1 -2.05723e-16
v 6.98229e-08 0.0224856 -0.0476838
vn 0 1 -2.07557e-16
v 6.98229e-08 0.0224856 -0.0476838
vn 0 -1 2.07557e-16
v 6.98229e-08 0.0224856 -0.0349446
vn 0 -1 2.05723e-16
v 0.0236697 0.0130407 -0.0476838
vn 0 -2.02663e-16 -1
v 0.0236697 0.0130407 -0.0476838
vn 0 2.02663e-16 1
v 0.0323334 -0.0033201 0.0476838
vn 0.971066 0.238811 -2.46041e-17
v 0.0323334 -0.0033201 -0.0476838
vn 0.927431 0.373995 -3.12979e-17
v 0.0323334 -0.0033201 -0.0476838
vn -0.927431 -0.373995 3.12979e-17
v 0.0323334 -0.0033201 0.0476838
vn -0.971066 -0.238811 2.46041e-17
v -0.00445989 0.0224856 0.0352101
vn 0 1 -1.59054e-16
v -0.00445989 0.0224856 0.0352101
vn 0 -1 1.59054e-16
v -0.00445989 0.0224856 -0.0349446
vn 0 1 -1.88255e-16
v -0.00445989 0.0224856 -0.0349446
vn 0 -1 1.88255e-16
v 0.00508431 0.0224856 -0.0349446
vn 0 1 -1.69966e-16
v 0.00508431 0.0224856 -0.0349446
vn 0 -1 1.69966e-16
v 0.0086639 0.0224856 -0.0476838
vn 0 -2.17773e-16 -1
v 0.0086639 0.0224856 -0.0476838
vn 0 2.17773e-16 1
v 0.0236697 0.0130407 0.0476838
vn 0.736874 0.676031 -3.70089e-17
v 0.0236697 0.0130407 -0.0476838
vn 0.736679 0.676242 -7.14526e-17
v 0.0236697 0.0130407 -0.0476838
vn -0.736679 -0.676242 7.14526e-17
v 0.0236697 0.0130407 0.0476838
vn -0.736874 -0.676031 3.70089e-17
v 6.98229e-08 0.0224856 0.0476838
vn 0 1 -2.0515e-16
v 6.98229e-08 0.0224856 0.0476838
vn 0 -1 2.0515e-16
v -0.00445989 0.0400572 -0.0349446
vn -0.822113 0.215811 -0.526836
v 6.98229e-08 0.0224856 -0.0349446
vn 0 -2.13393e-16 -1
v -0.00445989 0.0224856 -0.0349446
vn -0.912338 -9.09135e-17 -0.409438
v 6.98229e-08 0.0224856 -0.0260038
vn 0 1 -1.91931e-16
v 6.98229e-08 0.0224856 -0.0260038
vn 0 -1 1.91931e-16
v 0.0086639 0.0224856 -0.0476838
vn 0.466708 0.884411 -8.61317e-17
v 0.0086639 0.0224856 -0.0476838
vn -0.466708 -0.884411 8.61317e-17
v 0.00508431 0.0224856 -0.0349446
vn 0.892232 -9.48558e-17 -0.451578
v 0.000312222 0.0224856 -0.025378
vn 0 1 -1.90836e-16
v 0.000312222 0.0224856 -0.025378
vn 0 -1 1.90836e-16
v 6.98229e-08 0.0224856 0.0352101
vn 0 1 -2.11257e-16
v 6.98229e-08 0.0224856 0.0352101
vn 0 -1 2.11257e-16
v 6.98229e-08 0.0224856 -0.0260038
vn -0.894846 -2.25125e-07 0.446375
v 0.0086639 0.0224856 0.0476838
vn 0.376377 0.926467 -1.22157e-16
v 0.0086639 0.0224856 0.0476838
vn -0.376377 -0.926467 1.22157e-16
v 0.00508431 0.0400572 -0.0349446
vn 0.885779 0.169311 -0.432122
v 0.000312222 0.0363252 -0.025378
vn 0.191497 -0.359134 0.913428
v 0.000312222 0.0224856 -0.025378
vn 0.214159 2.13226e-16 0.976799
v 0.00508431 0.0224856 0.0352101
vn 0 1 -1.73935e-16
v 0.00508431 0.0224856 0.0352101
vn 0 -1 1.73935e-16
v 6.98229e-08 0.0224856 0.0352101
vn 0 2.13393e-16 1
v 0.00508431 0.0400572 0.0352101
vn 0.826895 0.214731 0.519745
v -0.00445989 0.0224856 0.0352101
vn -0.802449 1.23917e-16 0.59672
v 6.98229e-08 0.0224856 0.0262693
vn 0 1 -2.07233e-16
v 6.98229e-08 0.0224856 0.0262693
vn 0 -1 2.07233e-16
v 0.000312222 0.0224856 0.0256435
vn 0 1 -2.05536e-16
v 0.000312222 0.0224856 0.0256435
vn 0 -1 2.05536e-16
v 0.00508431 0.0480189 -0.0264928
vn 0.862558 0.481536 -0.155296
v 0.00508431 0.0224856 0.0352101
vn 0.912128 9.07342e-17 0.409907
v -0.00445989 0.0400572 0.0352101
vn -0.937244 0.151211 0.31418
v 6.98229e-08 0.0224856 0.0262693
vn -0.894846 -2.24032e-07 -0.446375
v -0.00445989 0.0480189 -0.0264928
vn -0.706706 0.70384 -0.071938
v 0.000312222 0.0224856 0.0256435
vn 0.418033 -1.93857e-16 -0.908432
v -0.00445989 0.0480189 0.0267585
vn -0.965653 0.229402 0.122022
v 0.000312222 0.0363252 0.0256435
vn -0.0149139 -0.40472 -0.914319
v 0.000312222 0.0390078 -0.02253
vn 0 -0.991709 0.128506
v 0.00508431 0.0480189 0.0267585
vn 0.875679 0.478954 0.0615612
v 0.000312222 0.0390078 0.0227958
vn 0 -0.977263 -0.212029
v -0.00445989 0.0224856 -0.0349446
vn 0.912338 9.09135e-17 0.409438
v 6.98229e-08 0.0224856 -0.0349446
vn 0 2.13393e-16 1
v -0.00445989 0.0400572 -0.0349446
vn 0.822113 -0.215811 0.526836
v 0.00508431 0.0224856 -0.0349446
vn -0.892232 9.48558e-17 0.451578
v 6.98229e-08 0.0224856 -0.0260038
vn 0.894846 2.25125e-07 -0.446375
v 0.00508431 0.0400572 -0.0349446
vn -0.885779 -0.169311 0.432122
v 0.000312222 0.0224856 -0.025378
vn -0.214159 -2.13226e-16 -0.976799
v 0.000312222 0.0363252 -0.025378
vn -0.191497 0.359134 -0.913428
v -0.00445989 0.0224856 0.0352101
vn 0.802449 -1.23917e-16 -0.59672
v 0.00508431 0.0400572 0.0352101
vn -0.826895 -0.214731 -0.519745
v 6.98229e-08 0.0224856 0.0352101
vn 0 -2.13393e-16 -1
v 0.00508431 0.0480189 -0.0264928
vn -0.862558 -0.481536 0.155296
v 0.00508431 0.0224856 0.0352101
vn -0.912128 -9.07342e-17 -0.409907
v -0.00445989 0.0400572 0.0352101
vn 0.937244 -0.151211 -0.31418
v 6.98229e-08 0.0224856 0.0262693
vn 0.894846 2.24032e-07 0.446375
v -0.00445989 0.0480189 -0.0264928
vn 0.706706 -0.70384 0.071938
v 0.000312222 0.0224856 0.0256435
vn -0.418033 1.93857e-16 0.908432
v -0.00445989 0.0480189 0.0267585
vn 0.965653 -0.229402 -0.122022
v 0.000312222 0.0363252 0.0256435
vn 0.0149139 0.40472 0.914319
v 0.000312222 0.0390078 -0.02253
vn 0 0.991709 -0.128506
v 0.00508431 0.0480189 0.0267585
vn -0.875679 -0.478954 -0.0615612
v 0.000312222 0.0390078 0.0227958
vn 0 0.977263 0.212029
f 1//1 2//2 3//3
f 2//2 1//1 4//4
f 5//5 6//6 7//7
f 8//8 7//7 6//6
f 9//9 3//3 2//2
f 6//6 5//5 10//10
f 1//1 11//11 4//4
f 8//8 12//12 7//7
f 13//13 14//14 15//15
f 16//16 17//17 18//18
f 3//3 9//9 19//19
f 20//20 10//10 5//5
f 11//11 1//1 21//21
f 22//22 7//7 12//12
f 23//23 13//13 24//24
f 25//25 18//18 26//26
f 14//14 13//13 23//23
f 26//26 18//18 17//17
f 27//27 19//19 9//9
f 10//10 20//20 28//28
f 21//21 29//29 11//11
f 12//12 30//30 22//22
f 23//23 24//24 31//31
f 32//32 25//25 26//26
f 23//23 33//33 14//14
f 17//17 34//34 26//26
f 19//19 27//27 35//35
f 36//36 28//28 20//20
f 29//29 21//21 37//37
f 38//38 22//22 30//30
f 39//39 23//23 31//31
f 32//32 26//26 40//40
f 33//33 23//23 41//41
f 42//42 26//26 34//34
f 43//43 35//35 27//27
f 28//28 36//36 44//44
f 37//37 45//45 29//29
f 30//30 46//46 38//38
f 23//23 39//39 47//47
f 48//48 40//40 26//26
f 41//41 23//23 49//49
f 50//50 26//26 42//42
f 35//35 43//43 51//51
f 52//52 44//44 36//36
f 45//45 37//37 53//53
f 54//54 38//38 46//46
f 47//47 39//39 55//55
f 56//56 40//40 48//48
f 47//47 57//57 23//23
f 26//26 58//58 48//48
f 49//49 23//23 57//57
f 58//58 26//26 50//50
f 59//59 43//43 60//60
f 61//61 44//44 62//62
f 43//43 59//59 51//51
f 52//52 62//62 44//44
f 53//53 63//63 45//45
f 46//46 64//64 54//54
f 47//47 55//55 65//65
f 66//66 56//56 48//48
f 57//57 47//47 67//67
f 68//68 48//48 58//58
f 69//69 60//60 70//70
f 71//71 61//61 72//72
f 60//60 69//69 59//59
f 62//62 72//72 61//61
f 63//63 53//53 73//73
f 74//74 54//54 64//64
f 63//63 75//75 76//76
f 77//77 78//78 64//64
f 76//76 79//79 80//80
f 81//81 82//82 77//77
f 67//67 47//47 83//83
f 84//84 48//48 68//68
f 85//85 70//70 86//86
f 87//87 71//71 88//88
f 70//70 85//85 69//69
f 72//72 88//88 71//71
f 75//75 63//63 73//73
f 74//74 64//64 78//78
f 75//75 89//89 76//76
f 77//77 90//90 78//78
f 79//79 76//76 91//91
f 92//92 77//77 82//82
f 93//93 80//80 79//79
f 82//82 81//81 94//94
f 83//83 47//47 95//95
f 96//96 48//48 84//84
f 97//97 86//86 98//98
f 99//99 87//87 100//100
f 86//86 97//97 85//85
f 88//88 100//100 87//87
f 101//101 89//89 75//75
f 78//78 90//90 102//102
f 91//91 76//76 89//89
f 90//90 77//77 92//92
f 103//103 104//104 105//105
f 91//91 106//106 79//79
f 82//82 107//107 92//92
f 93//93 108//108 80//80
f 81//81 109//109 94//94
f 104//104 103//103 110//110
f 79//79 111//111 93//93
f 94//94 112//112 82//82
f 108//108 97//97 98//98
f 99//99 100//100 109//109
f 89//89 101//101 113//113
f 114//114 102//102 90//90
f 89//89 106//106 91//91
f 92//92 107//107 90//90
f 115//115 103//103 105//105
f 111//111 79//79 106//106
f 107//107 82//82 112//112
f 108//108 93//93 116//116
f 117//117 94//94 109//109
f 110//110 103//103 118//118
f 110//110 119//119 120//120
f 111//111 121//121 93//93
f 94//94 122//122 112//112
f 97//97 108//108 116//116
f 117//117 109//109 100//100
f 101//101 121//121 113//113
f 114//114 122//122 102//102
f 123//123 124//124 125//125
f 89//89 113//113 126//126
f 127//127 114//114 90//90
f 106//106 89//89 126//126
f 127//127 90//90 107//107
f 103//103 115//115 119//119
f 119//119 115//115 120//120
f 128//128 111//111 106//106
f 107//107 112//112 129//129
f 121//121 116//116 93//93
f 94//94 117//117 122//122
f 103//103 130//130 118//118
f 119//119 110//110 118//118
f 121//121 111//111 128//128
f 129//129 112//112 122//122
f 116//116 121//121 101//101
f 102//102 122//122 117//117
f 124//124 123//123 131//131
f 128//128 113//113 121//121
f 122//122 114//114 129//129
f 125//125 124//124 132//132
f 113//113 128//128 126//126
f 127//127 129//129 114//114
f 132//132 133//133 125//125
f 128//128 106//106 126//126
f 127//127 107//107 129//129
f 119//119 134//134 103//103
f 130//130 103//103 134//134
f 130//130 119//119 118//118
f 135//135 124//124 131//131
f 124//124 136//136 132//132
f 133//133 137//137 135//135
f 137//137 133//133 132//132
f 134//134 119//119 138//138
f 134//134 139//139 130//130
f 119//119 130//130 138//138
f 124//124 135//135 137//137
f 136//136 124//124 139//139
f 136//136 137//137 132//132
f 138//138 136//136 134//134
f 139//139 134//134 136//136
f 139//139 138//138 130//130
f 137//137 139//139 124//124
f 137//137 136//136 140//140
f 136//136 138//138 140//140
f 138//138 139//139 140//140
f 139//139 137//137 140//140
f 141//141 142//142 143//143
f 144//144 143//143 142//142
f 141//141 143//143 145//145
f 146//146 143//143 144//144
f 147//147 148//148 144//144
f 149//149 150//150 151//151
f 148//148 145//145 143//143
f 147//147 145//145 148//148
f 146//146 152//152 143//143
f 146//146 144//144 148//148
f 153//153 151//151 150//150
f 154//154 150//150 149//149
f 149//149 155//155 154//154
f 143//143 156//156 148//148
f 156//156 143//143 152//152
f 146//146 148//148 152//152
f 153//153 150//150 157//157
f 154//154 158//158 150//150
f 157//157 159//159 155//155
f 154//154 155//155 159//159
f 160//160 148//148 156//156
f 152//152 161//161 156//156
f 160//160 152//152 148//148
f 159//159 157//157 150//150
f 161//161 150//150 158//158
f 154//154 159//159 158//158
f 156//156 158//158 160//160
f 158//158 156//156 161//161
f 152//152 160//160 161//161
f 150//150 161//161 159//159
f 162//162 158//158 159//159
f 162//162 160//160 158//158
f 162//162 161//161 160//160
f 162//162 159//159 161//161
