# Created by Open3D 
# object name: capital_letter_t
# number of vertices: 48
# number of triangles: 28
mtllib capital_letter_t.mtl
v 0.0288675 0.0288675 0.00866025
vn -0 1 -0
v 0.0288675 0.0288675 -0.00866025
vn -0 1 -0
v 0.011547 0.0288675 -0.00866025
vn -0 1 -0
v 0.011547 0.0288675 0.00866025
vn -0 1 -0
v 0.0288675 0.0288675 -0.00866025
vn -0 -0 -1
v 0.011547 0.00866026 -0.00866025
vn -0 -0 -1
v 0.011547 0.0288675 -0.00866025
vn -0 -0 -1
v -0.0288675 -0.00866026 0.00866025
vn -0 -1 -0
v -0.0288675 -0.00866026 -0.00866025
vn -0 -1 -0
v 0.011547 -0.00866026 -0.00866025
vn -0 -1 -0
v 0.011547 -0.00866026 0.00866025
vn -0 -1 -0
v 0.0288675 -0.0288675 -0.00866025
vn -0 -0 -1
v 0.011547 -0.0288675 -0.00866025
vn -0 -0 -1
v 0.011547 -0.00866026 -0.00866025
vn -0 -0 -1
v 0.0288675 -0.0288675 0.00866025
vn -0 -0 1
v 0.0288675 0.0288675 0.00866025
vn -0 -0 1
v 0.011547 0.00866026 0.00866025
vn -0 -0 1
v 0.011547 0.0288675 0.00866025
vn -0 -0 1
v 0.0288675 -0.0288675 0.00866025
vn 1 -0 -0
v 0.0288675 -0.0288675 -0.00866025
vn 1 -0 -0
v 0.0288675 0.0288675 -0.00866025
vn 1 -0 -0
v 0.011547 -0.00866026 0.00866025
vn -1 -0 -0
v 0.011547 -0.00866026 -0.00866025
vn -1 -0 -0
v 0.011547 -0.0288675 -0.00866025
vn -1 -0 -0
v 0.011547 -0.0288675 0.00866025
vn -1 -0 -0
v -0.0288675 0.00866026 0.00866025
vn -1 -0 -0
v -0.0288675 0.00866026 -0.00866025
vn -1 -0 -0
v -0.0288675 -0.00866026 -0.00866025
vn -1 -0 -0
v -0.0288675 -0.00866026 0.00866025
vn -1 -0 -0
v -0.0288675 0.00866026 -0.00866025
vn -0 1 -0
v -0.0288675 0.00866026 0.00866025
vn -0 1 -0
v 0.011547 0.00866026 0.00866025
vn -0 1 -0
v 0.011547 0.00866026 -0.00866025
vn -0 1 -0
v -0.0288675 0.00866026 0.00866025
vn -0 -0 1
v -0.0288675 -0.00866026 0.00866025
vn -0 -0 1
v 0.011547 -0.00866026 0.00866025
vn -0 -0 1
v 0.0288675 0.0288675 0.00866025
vn 1 -0 -0
v 0.011547 -0.0288675 0.00866025
vn -0 -1 -0
v 0.011547 -0.0288675 -0.00866025
vn -0 -1 -0
v 0.0288675 -0.0288675 -0.00866025
vn -0 -1 -0
v 0.0288675 -0.0288675 0.00866025
vn -0 -1 -0
v -0.0288675 -0.00866026 -0.00866025
vn -0 -0 -1
v -0.0288675 0.00866026 -0.00866025
vn -0 -0 -1
v 0.011547 0.0288675 0.00866025
vn -1 -0 -0
v 0.011547 0.0288675 -0.00866025
vn -1 -0 -0
v 0.011547 0.00866026 -0.00866025
vn -1 -0 -0
v 0.011547 0.00866026 0.00866025
vn -1 -0 -0
v 0.011547 -0.0288675 0.00866025
vn -0 -0 1
vt 0.8 0.666667
vt 0.8 0.333333
vt 0.900001 0.333333
vt 0.8 0.666667
vt 0.900001 0.333333
vt 0.900001 0.666667
vt 0.333333 0
vt 0.233334 0.116667
vt 0.233334 0
vt 0.333333 0.666667
vt 0.333333 0.333333
vt 0.566667 0.333333
vt 0.333333 0.666667
vt 0.566667 0.333333
vt 0.566667 0.666667
vt 0.333333 0.333333
vt 0.233334 0.333333
vt 0.233334 0.216666
vt 0.333333 0.666666
vt 0 0.666666
vt 0.116667 0.566667
vt 0 0.566667
vt 0.116667 0.566667
vt 0 0.666666
vt 0.333334 0
vt 0.666668 0
vt 0.666668 0.333333
vt 0.666667 0.333333
vt 0.666667 0
vt 0.783334 0
vt 0.666667 0.333333
vt 0.783334 0
vt 0.783333 0.333333
vt 0 1
vt 0 0.666667
vt 0.1 0.666667
vt 0 1
vt 0.1 0.666667
vt 0.1 1
vt 0.8 0.333333
vt 0.8 0.666667
vt 0.566667 0.666667
vt 0.8 0.333333
vt 0.566667 0.666667
vt 0.566667 0.333333
vt 0.116667 0.333333
vt 0.216666 0.333333
vt 0.216666 0.566667
vt 0.333333 0.666666
vt 0.116667 0.566667
vt 0.216666 0.566667
vt 0.116667 0.333333
vt 0.216666 0.566667
vt 0.116667 0.566667
vt 0.333334 0
vt 0.666668 0.333333
vt 0.333334 0.333333
vt 0.9 0.333333
vt 0.9 0
vt 1 0
vt 0.9 0.333333
vt 1 0
vt 1 0.333333
vt 0.333333 0
vt 0.333333 0.333333
vt 0.233334 0.216666
vt 0 0.216666
vt 0 0.116667
vt 0.233334 0.216666
vt 0 0.116667
vt 0.233334 0.116667
vt 0.233334 0.216666
vt 0.333333 0
vt 0.233334 0.216666
vt 0.233334 0.116667
vt 0.783334 0.333333
vt 0.783334 0
vt 0.900001 0
vt 0.783334 0.333333
vt 0.900001 0
vt 0.900001 0.333333
vt 0.216666 0.566667
vt 0.333333 0.566667
vt 0.333333 0.666666
usemtl capital_letter_t_2
f 1/1/1 2/2/2 3/3/3
f 1/4/1 3/5/3 4/6/4
f 5/7/5 6/8/6 7/9/7
f 8/10/8 9/11/9 10/12/10
f 8/13/8 10/14/10 11/15/11
f 12/16/12 13/17/13 14/18/14
f 15/19/15 16/20/16 17/21/17
f 18/22/18 17/23/17 16/24/16
f 19/25/19 20/26/20 21/27/21
f 22/28/22 23/29/23 24/30/24
f 22/31/22 24/32/24 25/33/25
f 26/34/26 27/35/27 28/36/28
f 26/37/26 28/38/28 29/39/29
f 30/40/30 31/41/31 32/42/32
f 30/43/30 32/44/32 33/45/33
f 34/46/34 35/47/35 36/48/36
f 15/49/15 17/50/17 36/51/36
f 34/52/34 36/53/36 17/54/17
f 19/55/19 21/56/21 37/57/37
f 38/58/38 39/59/39 40/60/40
f 38/61/38 40/62/40 41/63/41
f 5/64/5 12/65/12 14/66/14
f 42/67/42 43/68/43 14/69/14
f 43/70/43 6/71/6 14/72/14
f 5/73/5 14/74/14 6/75/6
f 44/76/44 45/77/45 46/78/46
f 44/79/44 46/80/46 47/81/47
f 36/82/36 48/83/48 15/84/15
