# Created by Open3D 
# object name: capital_letter_v
# number of vertices: 97
# number of triangles: 96
mtllib capital_letter_v.mtl
v -0.00549954 -0.0298645 -0.0094738
vn -0 -1 -0
v 0.00538585 -0.0298645 0.0094738
vn -0 -1 -0
v -0.00549954 -0.0298645 0.0094738
vn -0 -1 -0
v -0.000708954 -0.0109359 0.0094738
vn -0 -0 1
v -0.0247155 0.029394 0.0094738
vn -0 -0 1
v -0.00130265 -0.0131275 0.0094738
vn -0 -0 1
v -0.000131054 -0.0158244 -0.0094738
vn -0 -0 -1
v 0.00212687 -0.0171823 -0.0094738
vn -0 -0 -1
v -0.00234792 -0.0172139 -0.0094738
vn -0 -0 -1
v 0.00538585 -0.0298645 -0.0094738
vn -0 -0 -1
v -0.00185844 -0.0151959 0.0094738
vn -0 -0 1
v 0.00165002 -0.0152275 -0.0094738
vn -0 -0 -1
v 0.0247155 0.0293909 -0.0094738
vn -0 -0 -1
v 0.00538585 -0.0298645 -0.0094738
vn -0 -1 -0
v 0.00153981 -0.0147772 -0.0094738
vn -0 -0 -1
v -0.00234792 -0.0172139 0.0094738
vn -0 -0 1
v -0.000131054 -0.0158244 0.0094738
vn -0 -0 1
v 0.00212687 -0.0171823 0.0094738
vn -0 -0 1
v 0.00538585 -0.0298645 0.0094738
vn -0 -0 1
v -0.00549954 -0.0298645 0.0094738
vn -0 -0 1
v 0.00165002 -0.0152275 0.0094738
vn -0 -0 1
v 0.0247155 0.0293909 0.0094738
vn -0 -0 1
v 0.00114791 -0.0131749 -0.0094738
vn -0 -0 -1
v 0.000588954 -0.0109896 -0.0094738
vn -0 -0 -1
v 0.00069948 -0.00623691 -0.0094738
vn -0 -0 -1
v 0.0121943 0.0298645 -0.0094738
vn -0 -0 -1
v -0.0123017 0.0298645 -0.0094738
vn -0 -0 -1
v -0.000756328 -0.00650534 -0.0094738
vn -0 -0 -1
v -0.0247155 0.029394 -0.0094738
vn -0 -0 -1
v -8.08428e-05 -0.00865908 -0.0094738
vn -0 -0 -1
v -0.000708954 -0.0109359 -0.0094738
vn -0 -0 -1
v -6.50534e-05 -0.00870988 -0.0094738
vn -0 -0 -1
v 0.00153981 -0.0147772 0.0094738
vn -0 -0 1
v -4.86322e-05 -0.00865908 -0.0094738
vn -0 -0 -1
v -6.34744e-05 -0.00871055 -0.0094738
vn -0 -0 -1
v -6.4106e-05 -0.00871241 -0.0094738
vn -0 -0 -1
v -5.21059e-05 -0.00875061 -0.0094738
vn -0 -0 -1
v -3.94742e-05 -0.00862748 -0.0094738
vn -0 -0 -1
v 0.0121943 0.0298645 0.0094738
vn -0 -0 1
v 0.00069948 -0.00623692 0.0094738
vn -0 -0 1
v -3.94742e-05 -0.00862748 0.0094738
vn -0 -0 1
v 0.00114791 -0.0131749 0.0094738
vn -0 -0 1
v 0.000588954 -0.0109896 0.0094738
vn -0 -0 1
v -3.94742e-05 -0.00862748 0.0094738
vn 0.0007 -0 1
v -4.86322e-05 -0.00865908 0.0094738
vn 0.0007 -0 1
v 0.0247155 0.0293909 0.0094738
vn 0.0007 -0 1
v -0.00130265 -0.0131275 -0.0094738
vn -0 -0 -1
v -0.00185844 -0.0151959 -0.0094738
vn -0 -0 -1
v -5.21059e-05 -0.00875061 0.0094738
vn -0 -0 1
v -4.86322e-05 -0.00865908 0.0094738
vn -0 -0 1
v -6.34744e-05 -0.00871055 0.0094738
vn -0 -0 1
v 0.0121943 0.0298645 -0.0094738
vn -0.9529 0.3034 -0
v 0.00069948 -0.00623691 -0.0094738
vn -0.9529 0.3034 -0
v 0.0121943 0.0298645 0.0094738
vn -0.9529 0.3034 -0
v -6.4106e-05 -0.00871241 0.0094738
vn -0 -0 1
v -0.0123017 0.0298645 -0.0094738
vn -0.0379 0.9993 -0
v -0.0247155 0.029394 -0.0094738
vn -0.0379 0.9993 -0
v -0.0247155 0.029394 0.0094738
vn -0.0379 0.9993 -0
v -0.0123017 0.0298645 0.0094738
vn -0.0379 0.9993 -0
v -0.00549954 -0.0298645 -0.0094738
vn -0 -0 -1
v -8.08428e-05 -0.00865908 0.0094738
vn -0 -0 1
v -6.50534e-05 -0.00870988 0.0094738
vn -0 -0 1
v -0.000756328 -0.00650534 0.0094738
vn -0 -0 1
v -0.0123017 0.0298645 0.0094738
vn -0 -0 1
v -4.86322e-05 -0.00865908 -0.0094738
vn -0 1 -0
v -8.08428e-05 -0.00865908 -0.0094738
vn -0 1 -0
v -4.86322e-05 -0.00865908 0.0094738
vn -0 1 -0
v -3.94742e-05 -0.00862748 0.0094738
vn -0.9604 0.2785 -0
v -3.94742e-05 -0.00862748 -0.0094738
vn -0.9604 0.2785 -0
v -4.86322e-05 -0.00865908 0.0094738
vn -0.9604 0.2785 -0
v -4.86322e-05 -0.00865908 -0.0094738
vn -0.9604 0.2785 -0
v 0.0121943 0.0298645 -0.0094738
vn 0.0378 0.9993 -0
v 0.0121943 0.0298645 0.0094738
vn 0.0378 0.9993 -0
v 0.0247155 0.0293909 -0.0094738
vn 0.0378 0.9993 -0
v 0.0247155 0.0293909 0.0094738
vn 0.0378 0.9993 -0
v 0.00069948 -0.00623692 0.0094738
vn -0.9529 0.3034 -0
v 0.00538585 -0.0298645 -0.0094738
vn 0.9507 -0.3101 -0
v 0.0247155 0.0293909 0.0094738
vn 0.9507 -0.3101 -0
v 0.00538585 -0.0298645 0.0094738
vn 0.9507 -0.3101 -0
v -8.08428e-05 -0.00865908 0.0094738
vn -0 1 -0
v -8.08428e-05 -0.00865908 0.0094738
vn 0.9542 0.2993 -0
v -8.08428e-05 -0.00865908 -0.0094738
vn 0.9542 0.2993 -0
v -0.000756328 -0.00650534 0.0094738
vn 0.9542 0.2993 -0
v -3.94742e-05 -0.00862748 0.0094738
vn -0.9554 0.2953 -0
v 0.00069948 -0.00623692 0.0094738
vn -0.9554 0.2953 -0
v 0.00069948 -0.00623691 -0.0094738
vn -0.9554 0.2953 -0
v -3.94742e-05 -0.00862748 -0.0094738
vn -0.9554 0.2953 -0
v 0.0247155 0.0293909 -0.0094738
vn 0.9507 -0.3101 -0
v -0.00549954 -0.0298645 -0.0094738
vn -0.9512 -0.3085 -0
v -0.00549954 -0.0298645 0.0094738
vn -0.9512 -0.3085 -0
v -0.0247155 0.029394 -0.0094738
vn -0.9512 -0.3085 -0
v -0.0247155 0.029394 0.0094738
vn -0.9512 -0.3085 -0
v -0.000756328 -0.00650534 -0.0094738
vn 0.9542 0.2993 -0
v -0.0123017 0.0298645 0.0094738
vn 0.9531 0.3026 -0
v -0.000756328 -0.00650534 0.0094738
vn 0.9531 0.3026 -0
v -0.0123017 0.0298645 -0.0094738
vn 0.9531 0.3026 -0
v -0.000756328 -0.00650534 -0.0094738
vn 0.9531 0.3026 -0
vt 0.933091 0.388218
vt 1 0.776436
vt 0.933091 0.776436
vt 0.156277 0.639007
vt 0.303839 0.39111
vt 0.159926 0.652478
vt 0.454953 0.669055
vt 0.468831 0.677402
vt 0.441326 0.677595
vt 0.468831 0.677402
vt 0.488863 0.755356
vt 0.441326 0.677595
vt 0.159926 0.652478
vt 0.303839 0.39111
vt 0.163342 0.665192
vt 0.4659 0.665386
vt 0.607677 0.391129
vt 0.468831 0.677402
vt 1 0.776436
vt 0.933091 0.388218
vt 1 0.388218
vt 0.468831 0.677402
vt 0.454953 0.669055
vt 0.4659 0.665386
vt 0.465223 0.662618
vt 0.4659 0.665386
vt 0.454953 0.669055
vt 0.163342 0.665192
vt 0.303839 0.39111
vt 0.166351 0.677595
vt 0.152725 0.669055
vt 0.166351 0.677595
vt 0.138846 0.677402
vt 0.118814 0.755356
vt 0.138846 0.677402
vt 0.166351 0.677595
vt 0.166351 0.677595
vt 0.185723 0.755356
vt 0.118814 0.755356
vt 0.141777 0.665386
vt 0.138846 0.677402
vt 0 0.391129
vt 0.118814 0.755356
vt 0 0.391129
vt 0.138846 0.677402
vt 0.465223 0.662618
vt 0.607677 0.391129
vt 0.4659 0.665386
vt 0.462814 0.652769
vt 0.607677 0.391129
vt 0.465223 0.662618
vt 0.488863 0.755356
vt 0.468831 0.677402
vt 0.607677 0.391129
vt 0.462814 0.652769
vt 0.459378 0.639337
vt 0.607677 0.391129
vt 0.607677 0.391129
vt 0.459378 0.639337
vt 0.460058 0.610124
vt 0.607677 0.391129
vt 0.460058 0.610124
vt 0.530713 0.388218
vt 0.380143 0.388218
vt 0.451109 0.611773
vt 0.303839 0.39111
vt 0.455261 0.625011
vt 0.4514 0.639007
vt 0.451109 0.611773
vt 0.455358 0.625324
vt 0.4514 0.639007
vt 0.455261 0.625011
vt 0.142455 0.662618
vt 0.152725 0.669055
vt 0.141777 0.665386
vt 0.138846 0.677402
vt 0.141777 0.665386
vt 0.152725 0.669055
vt 0.455261 0.625011
vt 0.455459 0.625011
vt 0.455358 0.625324
vt 0.455459 0.625011
vt 0.455368 0.625328
vt 0.455358 0.625324
vt 0.455364 0.62534
vt 0.455358 0.625324
vt 0.455368 0.625328
vt 0.455438 0.625574
vt 0.455459 0.625011
vt 0.459378 0.639337
vt 0.455368 0.625328
vt 0.455459 0.625011
vt 0.455438 0.625574
vt 0.455459 0.625011
vt 0.455515 0.624817
vt 0.459378 0.639337
vt 0.460058 0.610124
vt 0.459378 0.639337
vt 0.455515 0.624817
vt 0.455364 0.62534
vt 0.4514 0.639007
vt 0.455358 0.625324
vt 0.303839 0.39111
vt 0.451109 0.611773
vt 0.4514 0.639007
vt 0 0.391129
vt 0.076964 0.388218
vt 0.14762 0.610124
vt 0.14762 0.610124
vt 0.152162 0.624817
vt 0 0.391129
vt 0.141777 0.665386
vt 0 0.391129
vt 0.142455 0.662618
vt 0.144864 0.652769
vt 0.142455 0.662618
vt 0 0.391129
vt 0.455368 0.625328
vt 0.455438 0.625574
vt 0.455364 0.62534
vt 0.144864 0.652769
vt 0 0.391129
vt 0.148299 0.639337
vt 0.152162 0.624817
vt 0.152218 0.625011
vt 0 0.391129
vt 0.4514 0.639007
vt 0.447751 0.652478
vt 0.303839 0.39111
vt 0.447751 0.652478
vt 0.444335 0.665192
vt 0.303839 0.39111
vt 0.444335 0.665192
vt 0.441326 0.677595
vt 0.303839 0.39111
vt 0.148299 0.639337
vt 0 0.391129
vt 0.15224 0.625574
vt 0.15224 0.625574
vt 0 0.391129
vt 0.152218 0.625011
vt 0.152309 0.625328
vt 0.15224 0.625574
vt 0.152218 0.625011
vt 0.607677 0.388218
vt 0.840545 0.388218
vt 0.607677 0.776436
vt 0.462814 0.652769
vt 0.465223 0.662618
vt 0.447751 0.652478
vt 0.459378 0.639337
vt 0.462814 0.652769
vt 0.447751 0.652478
vt 0.454953 0.669055
vt 0.447751 0.652478
vt 0.465223 0.662618
vt 0.447751 0.652478
vt 0.4514 0.639007
vt 0.459378 0.639337
vt 0.441326 0.677595
vt 0.444335 0.665192
vt 0.454953 0.669055
vt 0.444335 0.665192
vt 0.447751 0.652478
vt 0.454953 0.669055
vt 0.455438 0.625574
vt 0.459378 0.639337
vt 0.4514 0.639007
vt 0.455364 0.62534
vt 0.455438 0.625574
vt 0.4514 0.639007
vt 0.152313 0.62534
vt 0.15224 0.625574
vt 0.152309 0.625328
vt 0.89872 0
vt 0.975024 0
vt 0.975024 0.388218
vt 0.89872 0
vt 0.975024 0.388218
vt 0.89872 0.388218
vt 0.421954 0.755356
vt 0.303839 0.39111
vt 0.441326 0.677595
vt 0.441326 0.677595
vt 0.488863 0.755356
vt 0.421954 0.755356
vt 0.152218 0.625011
vt 0.152416 0.625011
vt 0.152319 0.625324
vt 0.185723 0.755356
vt 0.166351 0.677595
vt 0.303839 0.39111
vt 0.152416 0.625011
vt 0.156568 0.611773
vt 0.156277 0.639007
vt 0.303839 0.39111
vt 0.156277 0.639007
vt 0.156568 0.611773
vt 0.303839 0.39111
vt 0.156568 0.611773
vt 0.227534 0.388218
vt 0.152319 0.625324
vt 0.152313 0.62534
vt 0.152309 0.625328
vt 0.152319 0.625324
vt 0.152309 0.625328
vt 0.152218 0.625011
vt 0.975024 0
vt 0.975222 0
vt 0.975024 0.388218
vt 0.152313 0.62534
vt 0.152319 0.625324
vt 0.156277 0.639007
vt 0.152319 0.625324
vt 0.152416 0.625011
vt 0.156277 0.639007
vt 0.15224 0.625574
vt 0.156277 0.639007
vt 0.148299 0.639337
vt 0.156277 0.639007
vt 0.159926 0.652478
vt 0.148299 0.639337
vt 0.152313 0.62534
vt 0.156277 0.639007
vt 0.15224 0.625574
vt 0.144864 0.652769
vt 0.148299 0.639337
vt 0.159926 0.652478
vt 0.142455 0.662618
vt 0.144864 0.652769
vt 0.159926 0.652478
vt 0.163342 0.665192
vt 0.152725 0.669055
vt 0.159926 0.652478
vt 0.166351 0.677595
vt 0.152725 0.669055
vt 0.163342 0.665192
vt 0.142455 0.662618
vt 0.159926 0.652478
vt 0.152725 0.669055
vt 0.855925 0.776436
vt 0.855925 0.388218
vt 0.856127 0.776436
vt 0.856127 0.388218
vt 0.856127 0.776436
vt 0.855925 0.388218
vt 0.933091 0.388218
vt 0.933091 0.776436
vt 0.856127 0.388218
vt 0.856127 0.776436
vt 0.856127 0.388218
vt 0.933091 0.776436
vt 0.840545 0.776436
vt 0.607677 0.776436
vt 0.840545 0.388218
vt 0 0
vt 0.383116 0.388218
vt 0 0.388218
vt 0.975222 0.388218
vt 0.975024 0.388218
vt 0.975222 0
vt 0.696897 0.388218
vt 0.696897 0
vt 0.708195 0.388218
vt 0.855925 0.776436
vt 0.840545 0.776436
vt 0.840545 0.388218
vt 0.855925 0.388218
vt 0.855925 0.776436
vt 0.840545 0.388218
vt 0 0
vt 0.383116 0
vt 0.383116 0.388218
vt 0.696897 0
vt 0.696897 0.388218
vt 0.383115 0
vt 0.696897 0.388218
vt 0.383115 0.388218
vt 0.383115 0
vt 0.696897 0
vt 0.708195 0
vt 0.708195 0.388218
vt 0.89872 0.388218
vt 0.708195 0.388218
vt 0.89872 0
vt 0.708195 0
vt 0.89872 0
vt 0.708195 0.388218
usemtl capital_letter_v_2
f 1/1/1 2/2/2 3/3/3
f 4/4/4 5/5/5 6/6/6
f 7/7/7 8/8/8 9/9/9
f 8/10/8 10/11/10 9/12/9
f 6/13/6 5/14/5 11/15/11
f 12/16/12 13/17/13 8/18/8
f 2/19/2 1/20/1 14/21/14
f 8/22/8 7/23/7 12/24/12
f 15/25/15 12/26/12 7/27/7
f 11/28/11 5/29/5 16/30/16
f 17/31/17 16/32/16 18/33/18
f 19/34/19 18/35/18 16/36/16
f 16/37/16 20/38/20 19/39/19
f 21/40/21 18/41/18 22/42/22
f 19/43/19 22/44/22 18/45/18
f 15/46/15 13/47/13 12/48/12
f 23/49/23 13/50/13 15/51/15
f 10/52/10 8/53/8 13/54/13
f 23/55/23 24/56/24 13/57/13
f 13/58/13 24/59/24 25/60/25
f 13/61/13 25/62/25 26/63/26
f 27/64/27 28/65/28 29/66/29
f 30/67/30 31/68/31 28/69/28
f 32/70/32 31/71/31 30/72/30
f 33/73/33 17/74/17 21/75/21
f 18/76/18 21/77/21 17/78/17
f 30/79/30 34/80/34 32/81/32
f 34/82/34 35/83/35 32/84/32
f 36/85/36 32/86/32 35/87/35
f 37/88/37 34/89/34 24/90/24
f 35/91/35 34/92/34 37/93/37
f 34/94/34 38/95/38 24/96/24
f 25/97/25 24/98/24 38/99/38
f 36/100/36 31/101/31 32/102/32
f 29/103/29 28/104/28 31/105/31
f 22/106/22 39/107/39 40/108/40
f 40/109/40 41/110/41 22/111/22
f 21/112/21 22/113/22 33/114/33
f 42/115/42 33/116/33 22/117/22
f 35/118/35 37/119/37 36/120/36
f 42/121/42 22/122/22 43/123/43
f 44/124/44 45/125/45 46/126/46
f 31/127/31 47/128/47 29/129/29
f 47/130/47 48/131/48 29/132/29
f 48/133/48 9/134/9 29/135/29
f 43/136/43 22/137/22 49/138/49
f 49/139/49 22/140/22 50/141/50
f 51/142/51 49/143/49 50/144/50
f 52/145/52 53/146/53 54/147/54
f 23/148/23 15/149/15 47/150/47
f 24/151/24 23/152/23 47/153/47
f 7/154/7 47/155/47 15/156/15
f 47/157/47 31/158/31 24/159/24
f 9/160/9 48/161/48 7/162/7
f 48/163/48 47/164/47 7/165/7
f 37/166/37 24/167/24 31/168/31
f 36/169/36 37/170/37 31/171/31
f 55/172/55 49/173/49 51/174/51
f 56/175/56 57/176/57 58/177/58
f 56/178/56 58/179/58 59/180/59
f 60/181/60 29/182/29 9/183/9
f 9/184/9 10/185/10 60/186/60
f 50/187/50 61/188/61 62/189/62
f 20/190/20 16/191/16 5/192/5
f 61/193/61 63/194/63 4/195/4
f 5/196/5 4/197/4 63/198/63
f 5/199/5 63/200/63 64/201/64
f 62/202/62 55/203/55 51/204/51
f 62/205/62 51/206/51 50/207/50
f 65/208/65 66/209/66 67/210/67
f 55/211/55 62/212/62 4/213/4
f 62/214/62 61/215/61 4/216/4
f 49/217/49 4/218/4 43/219/43
f 4/220/4 6/221/6 43/222/43
f 55/223/55 4/224/4 49/225/49
f 42/226/42 43/227/43 6/228/6
f 33/229/33 42/230/42 6/231/6
f 11/232/11 17/233/17 6/234/6
f 16/235/16 17/236/17 11/237/11
f 33/238/33 6/239/6 17/240/17
f 68/241/68 69/242/69 70/243/70
f 71/244/71 70/245/70 69/246/69
f 72/247/72 73/248/73 74/249/74
f 75/250/75 74/251/74 73/252/73
f 76/253/76 54/254/54 53/255/53
f 77/256/77 78/257/78 79/258/79
f 80/259/80 67/260/67 66/261/66
f 81/262/81 82/263/82 83/264/83
f 84/265/84 85/266/85 86/267/86
f 87/268/87 84/269/84 86/270/86
f 77/271/77 88/272/88 78/273/78
f 89/274/89 90/275/90 91/276/91
f 90/277/90 92/278/92 91/279/91
f 82/280/82 93/281/93 83/282/83
f 94/283/94 95/284/95 96/285/96
f 97/286/97 96/287/96 95/288/95
