# Created by Open3D 
# object name: cross
# number of vertices: 72
# number of triangles: 44
mtllib cross.mtl
v 0.0288675 -0.0144337 0.00866025
vn 1 -0 -0
v 0.0288675 -0.0144337 -0.00866025
vn 1 -0 -0
v 0.0288675 0.0144337 -0.00866025
vn 1 -0 -0
v 0.0288675 0.0144337 0.00866025
vn 1 -0 -0
v 0.0144337 -0.0288675 -0.00866025
vn -0 -1 -0
v 0.0144337 -0.0288675 0.00866025
vn -0 -1 -0
v -0.0144337 -0.0288675 0.00866025
vn -0 -1 -0
v -0.0144337 -0.0288675 -0.00866025
vn -0 -1 -0
v 0.0144337 -0.0288675 0.00866025
vn -0 -0 1
v 0.0144337 -0.0144337 0.00866025
vn -0 -0 1
v -0.0144337 -0.0144337 0.00866025
vn -0 -0 1
v -0.0144337 -0.0288675 0.00866025
vn -0 -0 1
v 0.0144337 0.0144337 0.00866025
vn -0 -0 1
v 0.0144337 0.0288675 0.00866025
vn -0 -0 1
v -0.0144337 0.0288675 0.00866025
vn -0 -0 1
v -0.0144337 0.0144337 0.00866025
vn -0 -0 1
v -0.0144337 0.0288675 0.00866025
vn -1 -0 -0
v -0.0144337 0.0288675 -0.00866025
vn -1 -0 -0
v -0.0144337 0.0144337 -0.00866025
vn -1 -0 -0
v -0.0144337 0.0144337 0.00866025
vn -1 -0 -0
v 0.0144337 -0.0144337 -0.00866025
vn -0 -0 -1
v 0.0144337 -0.0288675 -0.00866025
vn -0 -0 -1
v -0.0144337 -0.0288675 -0.00866025
vn -0 -0 -1
v -0.0144337 -0.0144337 -0.00866025
vn -0 -0 -1
v -0.0288675 -0.0144337 0.00866025
vn -0 -0 1
v -0.0288675 0.0144337 0.00866025
vn -0 -0 1
v 0.0288675 0.0144337 0.00866025
vn -0 -0 1
v 0.0288675 -0.0144337 0.00866025
vn -0 -0 1
v 0.0144337 0.0288675 -0.00866025
vn -0 -0 -1
v 0.0144337 0.0144337 -0.00866025
vn -0 -0 -1
v -0.0144337 0.0144337 -0.00866025
vn -0 -0 -1
v -0.0144337 0.0288675 -0.00866025
vn -0 -0 -1
v -0.0144337 -0.0144337 0.00866025
vn -1 -0 -0
v -0.0144337 -0.0144337 -0.00866025
vn -1 -0 -0
v -0.0144337 -0.0288675 -0.00866025
vn -1 -0 -0
v -0.0144337 -0.0288675 0.00866025
vn -1 -0 -0
v 0.0288675 0.0144337 0.00866025
vn -0 1 -0
v 0.0288675 0.0144337 -0.00866025
vn -0 1 -0
v 0.0144337 0.0144337 -0.00866025
vn -0 1 -0
v 0.0144337 0.0144337 0.00866025
vn -0 1 -0
v 0.0144337 -0.0288675 0.00866025
vn 1 -0 -0
v 0.0144337 -0.0288675 -0.00866025
vn 1 -0 -0
v 0.0144337 -0.0144337 -0.00866025
vn 1 -0 -0
v 0.0144337 -0.0144337 0.00866025
vn 1 -0 -0
v 0.0144337 0.0144337 0.00866025
vn 1 -0 -0
v 0.0144337 0.0144337 -0.00866025
vn 1 -0 -0
v 0.0144337 0.0288675 -0.00866025
vn 1 -0 -0
v 0.0144337 0.0288675 0.00866025
vn 1 -0 -0
v -0.0288675 0.0144337 -0.00866025
vn -0 -0 -1
v -0.0288675 -0.0144337 -0.00866025
vn -0 -0 -1
v 0.0288675 -0.0144337 -0.00866025
vn -0 -0 -1
v 0.0288675 0.0144337 -0.00866025
vn -0 -0 -1
v -0.0288675 -0.0144337 0.00866025
vn -0 -1 -0
v -0.0288675 -0.0144337 -0.00866025
vn -0 -1 -0
v -0.0144337 -0.0144337 -0.00866025
vn -0 -1 -0
v -0.0144337 -0.0144337 0.00866025
vn -0 -1 -0
v -0.0288675 0.0144337 0.00866025
vn -1 -0 -0
v -0.0288675 0.0144337 -0.00866025
vn -1 -0 -0
v -0.0288675 -0.0144337 -0.00866025
vn -1 -0 -0
v -0.0288675 -0.0144337 0.00866025
vn -1 -0 -0
v -0.0144337 0.0144337 0.00866025
vn -0 1 -0
v -0.0144337 0.0144337 -0.00866025
vn -0 1 -0
v -0.0288675 0.0144337 -0.00866025
vn -0 1 -0
v -0.0288675 0.0144337 0.00866025
vn -0 1 -0
v 0.0144337 -0.0144337 0.00866025
vn -0 -1 -0
v 0.0144337 -0.0144337 -0.00866025
vn -0 -1 -0
v 0.0288675 -0.0144337 -0.00866025
vn -0 -1 -0
v 0.0288675 -0.0144337 0.00866025
vn -0 -1 -0
v 0.0144337 0.0288675 0.00866025
vn -0 1 -0
v 0.0144337 0.0288675 -0.00866025
vn -0 1 -0
v -0.0144337 0.0288675 -0.00866025
vn -0 1 -0
v -0.0144337 0.0288675 0.00866025
vn -0 1 -0
vt 0.333333 0.333333
vt 0.333333 0
vt 0.5 0
vt 0.333333 0.333333
vt 0.5 0
vt 0.5 0.333333
vt 0.666667 0
vt 0.666667 0.333333
vt 0.5 0.333333
vt 0.666667 0
vt 0.5 0.333333
vt 0.5 0
vt 0.333333 0.25
vt 0.25 0.25
vt 0.25 0.083333
vt 0.333333 0.25
vt 0.25 0.083333
vt 0.333333 0.083333
vt 0.083333 0.25
vt 0 0.25
vt 0 0.083333
vt 0.083333 0.25
vt 0 0.083333
vt 0.083333 0.083333
vt 0.666667 0.333333
vt 0.666667 0
vt 0.75 0
vt 0.666667 0.333333
vt 0.75 0
vt 0.75 0.333333
vt 0.25 0.416666
vt 0.333333 0.416666
vt 0.333333 0.583333
vt 0.25 0.416666
vt 0.333333 0.583333
vt 0.25 0.583333
vt 0.25 0
vt 0.25 0.083333
vt 0.083333 0.083333
vt 0.083333 0
vt 0.25 0
vt 0.083333 0.083333
vt 0.083333 0.25
vt 0.083333 0.083333
vt 0.25 0.083333
vt 0.25 0.083333
vt 0.25 0.25
vt 0.083333 0.25
vt 0.083333 0.333333
vt 0.083333 0.25
vt 0.25 0.25
vt 0.083333 0.333333
vt 0.25 0.25
vt 0.25 0.333333
vt 0 0.416666
vt 0.083333 0.416666
vt 0.083333 0.583333
vt 0 0.416666
vt 0.083333 0.583333
vt 0 0.583333
vt 0.666667 0.666667
vt 0.666667 0.333333
vt 0.75 0.333333
vt 0.666667 0.666667
vt 0.75 0.333333
vt 0.75 0.666667
vt 0.75 0.333333
vt 0.75 0
vt 0.833333 0
vt 0.75 0.333333
vt 0.833333 0
vt 0.833333 0.333333
vt 0.75 0.666667
vt 0.75 0.333333
vt 0.833333 0.333333
vt 0.75 0.666667
vt 0.833333 0.333333
vt 0.833333 0.666667
vt 0.833333 0.333333
vt 0.833333 0
vt 0.916667 0
vt 0.833333 0.333333
vt 0.916667 0
vt 0.916667 0.333333
vt 0.083333 0.666667
vt 0.083333 0.583333
vt 0.25 0.583333
vt 0.25 0.666666
vt 0.083333 0.666667
vt 0.25 0.583333
vt 0.25 0.416666
vt 0.25 0.583333
vt 0.083333 0.583333
vt 0.083333 0.583333
vt 0.083333 0.416666
vt 0.25 0.416666
vt 0.25 0.333333
vt 0.25 0.416666
vt 0.083333 0.416666
vt 0.25 0.333333
vt 0.083333 0.416666
vt 0.083333 0.333333
vt 0.833333 0.666667
vt 0.833333 0.333333
vt 0.916666 0.333333
vt 0.833333 0.666667
vt 0.916666 0.333333
vt 0.916666 0.666667
vt 0.333333 0.666667
vt 0.333333 0.333333
vt 0.5 0.333333
vt 0.333333 0.666667
vt 0.5 0.333333
vt 0.5 0.666667
vt 0 1
vt 0 0.666667
vt 0.083333 0.666667
vt 0 1
vt 0.083333 0.666667
vt 0.083333 1
vt 0.916667 0.333333
vt 0.916667 0
vt 1 0
vt 0.916667 0.333333
vt 1 0
vt 1 0.333333
vt 0.5 0.666667
vt 0.5 0.333333
vt 0.666667 0.333333
vt 0.5 0.666667
vt 0.666667 0.333333
vt 0.666667 0.666667
usemtl cross_2
f 1/1/1 2/2/2 3/3/3
f 1/4/1 3/5/3 4/6/4
f 5/7/5 6/8/6 7/9/7
f 5/10/5 7/11/7 8/12/8
f 9/13/9 10/14/10 11/15/11
f 9/16/9 11/17/11 12/18/12
f 13/19/13 14/20/14 15/21/15
f 13/22/13 15/23/15 16/24/16
f 17/25/17 18/26/18 19/27/19
f 17/28/17 19/29/19 20/30/20
f 21/31/21 22/32/22 23/33/23
f 21/34/21 23/35/23 24/36/24
f 25/37/25 11/38/11 16/39/16
f 26/40/26 25/41/25 16/42/16
f 13/43/13 16/44/16 11/45/11
f 11/46/11 10/47/10 13/48/13
f 27/49/27 13/50/13 10/51/10
f 27/52/27 10/53/10 28/54/28
f 29/55/29 30/56/30 31/57/31
f 29/58/29 31/59/31 32/60/32
f 33/61/33 34/62/34 35/63/35
f 33/64/33 35/65/35 36/66/36
f 37/67/37 38/68/38 39/69/39
f 37/70/37 39/71/39 40/72/40
f 41/73/41 42/74/42 43/75/43
f 41/76/41 43/77/43 44/78/44
f 45/79/45 46/80/46 47/81/47
f 45/82/45 47/83/47 48/84/48
f 49/85/49 31/86/31 24/87/24
f 50/88/50 49/89/49 24/90/24
f 21/91/21 24/92/24 31/93/31
f 31/94/31 30/95/30 21/96/21
f 51/97/51 21/98/21 30/99/30
f 51/100/51 30/101/30 52/102/52
f 53/103/53 54/104/54 55/105/55
f 53/106/53 55/107/55 56/108/56
f 57/109/57 58/110/58 59/111/59
f 57/112/57 59/113/59 60/114/60
f 61/115/61 62/116/62 63/117/63
f 61/118/61 63/119/63 64/120/64
f 65/121/65 66/122/66 67/123/67
f 65/124/65 67/125/67 68/126/68
f 69/127/69 70/128/70 71/129/71
f 69/130/69 71/131/71 72/132/72
