# Created by Open3D 
# object name: heart
# number of vertices: 180
# number of triangles: 116
mtllib heart.mtl
v -0.0236521 0.0235881 -0.00914384
vn -0.7398 0.6729 -0
v -0.0266573 0.0202841 -0.00914384
vn -0.7398 0.6729 -0
v -0.0266573 0.0202841 0.00914384
vn -0.7398 0.6729 -0
v -0.0266573 0.0202841 -0.00914384
vn -0.9124 0.4092 -0
v -0.028355 0.0164985 -0.00914384
vn -0.9124 0.4092 -0
v -0.0266573 0.0202841 0.00914384
vn -0.9124 0.4092 -0
v -0.0291932 0.00940899 -0.00914384
vn -0.995 -0.0998 -0
v -0.0288701 0.00618732 -0.00914384
vn -0.995 -0.0998 -0
v -0.0288701 0.00618732 0.00914384
vn -0.995 -0.0998 -0
v -0.0288701 0.00618732 -0.00914384
vn -0.9889 -0.1486 -0
v -0.0283063 0.00243531 -0.00914384
vn -0.9889 -0.1486 -0
v -0.0288701 0.00618732 0.00914384
vn -0.9889 -0.1486 -0
v -0.0283063 0.00243531 -0.00914384
vn -0.921 -0.3896 -0
v -0.0266817 -0.0014051 -0.00914384
vn -0.921 -0.3896 -0
v -0.0266817 -0.00140511 0.00914384
vn -0.921 -0.3896 -0
v -0.0266817 -0.0014051 -0.00914384
vn -0.7964 -0.6048 -0
v -0.0206224 -0.0093846 -0.00914384
vn -0.7964 -0.6048 -0
v -0.0266817 -0.00140511 0.00914384
vn -0.7964 -0.6048 -0
v 0 0.0185589 -0.00914384
vn -0 -0 -1
v 0.000947912 0.0205462 -0.00914384
vn -0 -0 -1
v 0.00355695 0.0233046 -0.00914384
vn -0 -0 -1
v 0.00748273 0.0257521 -0.00914384
vn -0 -0 -1
v 0.0123747 0.0268097 -0.00914384
vn -0 -0 -1
v 0.0190039 0.0259227 -0.00914384
vn -0 -0 -1
v 0.0236521 0.0235881 -0.00914384
vn -0 -0 -1
v 0.0266573 0.0202841 -0.00914384
vn -0 -0 -1
v 0.028355 0.0164985 -0.00914384
vn -0 -0 -1
v 0.0291932 0.00940899 -0.00914384
vn -0 -0 -1
v 0.0288701 0.00618732 -0.00914384
vn -0 -0 -1
v 0.0283063 0.00243531 -0.00914384
vn -0 -0 -1
v 0.0266817 -0.0014051 -0.00914384
vn -0 -0 -1
v 0.0206224 -0.0093846 -0.00914384
vn -0 -0 -1
v 0.0114725 -0.0178244 -0.00914384
vn -0 -0 -1
v 0 -0.0268097 -0.00914384
vn -0 -0 -1
v -0.0114725 -0.0178244 -0.00914384
vn -0 -0 -1
v -0.0283063 0.00243531 -0.00914384
vn -0 -0 -1
v -0.0288701 0.00618732 -0.00914384
vn -0 -0 -1
v -0.0266817 -0.0014051 -0.00914384
vn -0 -0 -1
v -0.0206224 -0.0093846 -0.00914384
vn -0 -0 -1
v -0.0291932 0.00940899 -0.00914384
vn -0 -0 -1
v -0.028355 0.0164985 -0.00914384
vn -0 -0 -1
v -0.0266573 0.0202841 -0.00914384
vn -0 -0 -1
v -0.0236521 0.0235881 -0.00914384
vn -0 -0 -1
v -0.0190039 0.0259227 -0.00914384
vn -0 -0 -1
v -0.0123747 0.0268097 -0.00914384
vn -0 -0 -1
v -0.00748273 0.0257521 -0.00914384
vn -0 -0 -1
v -0.00355695 0.0233046 -0.00914384
vn -0 -0 -1
v -0.000947912 0.0205462 -0.00914384
vn -0 -0 -1
v 0.0266817 -0.00140511 0.00914384
vn -0 -0 1
v 0.0283063 0.00243531 0.00914384
vn -0 -0 1
v 0 0.0185589 0.00914384
vn -0 -0 1
v 0.0206224 -0.0093846 0.00914384
vn -0 -0 1
v 0.0114725 -0.0178244 0.00914384
vn -0 -0 1
v -0.0114725 -0.0178244 0.00914384
vn -0 -0 1
v 0.0288701 0.00618732 0.00914384
vn -0 -0 1
v 0.0291932 0.00940899 0.00914384
vn -0 -0 1
v 0.000947912 0.0205462 0.00914384
vn -0 -0 1
v 0.00355695 0.0233046 0.00914384
vn -0 -0 1
v 0.00748273 0.0257521 0.00914384
vn -0 -0 1
v 0.0123747 0.0268097 0.00914384
vn -0 -0 1
v 0.028355 0.0164985 0.00914384
vn -0 -0 1
v 0.0190039 0.0259227 0.00914384
vn -0 -0 1
v 0.0266573 0.0202841 0.00914384
vn -0 -0 1
v 0.0236521 0.023588 0.00914384
vn -0 -0 1
v -0.0236521 0.023588 0.00914384
vn -0 -0 1
v -0.0266573 0.0202841 0.00914384
vn -0 -0 1
v -0.0190039 0.0259227 0.00914384
vn -0 -0 1
v -0.028355 0.0164985 0.00914384
vn -0 -0 1
v -0.0291932 0.00940899 0.00914384
vn -0 -0 1
v -0.0123747 0.0268097 0.00914384
vn -0 -0 1
v -0.0288701 0.00618732 0.00914384
vn -0 -0 1
v -0.0283063 0.00243531 0.00914384
vn -0 -0 1
v -0.0266817 -0.00140511 0.00914384
vn -0 -0 1
v -0.0206224 -0.0093846 0.00914384
vn -0 -0 1
v 0 -0.0268097 0.00914384
vn -0 -0 1
v -0.000947912 0.0205462 0.00914384
vn -0 -0 1
v -0.00355695 0.0233046 0.00914384
vn -0 -0 1
v -0.00748273 0.0257521 0.00914384
vn -0 -0 1
v 0 -0.0268097 -0.00914384
vn 0.6166 -0.7873 -0
v 0.0114725 -0.0178244 0.00914384
vn 0.6166 -0.7873 -0
v 0 -0.0268097 0.00914384
vn 0.6166 -0.7873 -0
v 0.0266817 -0.0014051 -0.00914384
vn 0.7964 -0.6048 -0
v 0.0266817 -0.00140511 0.00914384
vn 0.7964 -0.6048 -0
v 0.0206224 -0.0093846 0.00914384
vn 0.7964 -0.6048 -0
v 0.0283063 0.00243531 0.00914384
vn 0.921 -0.3896 -0
v 0.0266817 -0.00140511 0.00914384
vn 0.921 -0.3896 -0
v 0.0266817 -0.0014051 -0.00914384
vn 0.921 -0.3896 -0
v 0.000947912 0.0205462 0.00914384
vn -0.9026 0.4305 -0
v 0 0.0185589 -0.00914384
vn -0.9026 0.4305 -0
v 0 0.0185589 0.00914384
vn -0.9026 0.4305 -0
v -0.00355695 0.0233046 0.00914384
vn 0.7265 0.6872 -0
v -0.000947912 0.0205462 0.00914384
vn 0.7265 0.6872 -0
v -0.000947912 0.0205462 -0.00914384
vn 0.7265 0.6872 -0
v -0.0291932 0.00940899 0.00914384
vn -0.9931 0.1174 -0
v -0.028355 0.0164985 0.00914384
vn -0.9931 0.1174 -0
v -0.0291932 0.00940899 -0.00914384
vn -0.9931 0.1174 -0
v -0.028355 0.0164985 -0.00914384
vn -0.9931 0.1174 -0
v -0.0123747 0.0268097 0.00914384
vn -0.1326 0.9912 -0
v -0.0190039 0.0259227 -0.00914384
vn -0.1326 0.9912 -0
v -0.0190039 0.0259227 0.00914384
vn -0.1326 0.9912 -0
v -0.0291932 0.00940899 0.00914384
vn -0.995 -0.0998 -0
v -0.0190039 0.0259227 -0.00914384
vn -0.4489 0.8936 -0
v -0.0236521 0.0235881 -0.00914384
vn -0.4489 0.8936 -0
v -0.0236521 0.023588 0.00914384
vn -0.4489 0.8936 -0
v -0.0190039 0.0259227 0.00914384
vn -0.4489 0.8936 -0
v -0.0283063 0.00243531 0.00914384
vn -0.9889 -0.1486 -0
v -0.0236521 0.023588 0.00914384
vn -0.7398 0.6729 -0
v -0.0283063 0.00243531 0.00914384
vn -0.921 -0.3896 -0
v -0.028355 0.0164985 0.00914384
vn -0.9124 0.4092 -0
v -0.0206224 -0.0093846 0.00914384
vn -0.7964 -0.6048 -0
v -0.0114725 -0.0178244 -0.00914384
vn -0.678 -0.7351 -0
v -0.0114725 -0.0178244 0.00914384
vn -0.678 -0.7351 -0
v -0.0206224 -0.0093846 0.00914384
vn -0.678 -0.7351 -0
v -0.0206224 -0.0093846 -0.00914384
vn -0.678 -0.7351 -0
v -0.0114725 -0.0178244 0.00914384
vn -0.6166 -0.7873 -0
v -0.0114725 -0.0178244 -0.00914384
vn -0.6166 -0.7873 -0
v 0 -0.0268097 0.00914384
vn -0.6166 -0.7873 -0
v 0 -0.0268097 -0.00914384
vn -0.6166 -0.7873 -0
v 0 0.0185589 -0.00914384
vn 0.9026 0.4305 -0
v -0.000947912 0.0205462 -0.00914384
vn 0.9026 0.4305 -0
v 0 0.0185589 0.00914384
vn 0.9026 0.4305 -0
v -0.000947912 0.0205462 0.00914384
vn 0.9026 0.4305 -0
v 0.0114725 -0.0178244 -0.00914384
vn 0.6166 -0.7873 -0
v 0.0206224 -0.0093846 0.00914384
vn 0.678 -0.7351 -0
v 0.0114725 -0.0178244 0.00914384
vn 0.678 -0.7351 -0
v 0.0206224 -0.0093846 -0.00914384
vn 0.678 -0.7351 -0
v 0.0114725 -0.0178244 -0.00914384
vn 0.678 -0.7351 -0
v 0.0206224 -0.0093846 -0.00914384
vn 0.7964 -0.6048 -0
v 0.0283063 0.00243531 -0.00914384
vn 0.921 -0.3896 -0
v 0.028355 0.0164985 -0.00914384
vn 0.9931 0.1174 -0
v 0.028355 0.0164985 0.00914384
vn 0.9931 0.1174 -0
v 0.0291932 0.00940899 0.00914384
vn 0.9931 0.1174 -0
v 0.0283063 0.00243531 -0.00914384
vn 0.9889 -0.1486 -0
v 0.0288701 0.00618732 -0.00914384
vn 0.9889 -0.1486 -0
v 0.0288701 0.00618732 0.00914384
vn 0.9889 -0.1486 -0
v 0.0283063 0.00243531 0.00914384
vn 0.9889 -0.1486 -0
v 0.0266573 0.0202841 0.00914384
vn 0.9124 0.4092 -0
v 0.028355 0.0164985 0.00914384
vn 0.9124 0.4092 -0
v 0.028355 0.0164985 -0.00914384
vn 0.9124 0.4092 -0
v 0.0291932 0.00940899 0.00914384
vn 0.995 -0.0998 -0
v 0.0288701 0.00618732 0.00914384
vn 0.995 -0.0998 -0
v 0.0291932 0.00940899 -0.00914384
vn 0.995 -0.0998 -0
v 0.0288701 0.00618732 -0.00914384
vn 0.995 -0.0998 -0
v 0.0291932 0.00940899 -0.00914384
vn 0.9931 0.1174 -0
v 0.0236521 0.023588 0.00914384
vn 0.4489 0.8936 -0
v 0.0190039 0.0259227 -0.00914384
vn 0.4489 0.8936 -0
v 0.0190039 0.0259227 0.00914384
vn 0.4489 0.8936 -0
v 0.0266573 0.0202841 -0.00914384
vn 0.9124 0.4092 -0
v 0.0190039 0.0259227 -0.00914384
vn 0.1326 0.9912 -0
v 0.0123747 0.0268097 0.00914384
vn 0.1326 0.9912 -0
v 0.0190039 0.0259227 0.00914384
vn 0.1326 0.9912 -0
v 0.0266573 0.0202841 -0.00914384
vn 0.7398 0.6729 -0
v 0.0236521 0.0235881 -0.00914384
vn 0.7398 0.6729 -0
v 0.0236521 0.023588 0.00914384
vn 0.7398 0.6729 -0
v 0.0266573 0.0202841 0.00914384
vn 0.7398 0.6729 -0
v 0.0236521 0.0235881 -0.00914384
vn 0.4489 0.8936 -0
v 0.0123747 0.0268097 -0.00914384
vn 0.1326 0.9912 -0
v 0.0123747 0.0268097 -0.00914384
vn -0.2113 0.9774 -0
v 0.00748273 0.0257521 -0.00914384
vn -0.2113 0.9774 -0
v 0.00748273 0.0257521 0.00914384
vn -0.2113 0.9774 -0
v 0.0123747 0.0268097 0.00914384
vn -0.2113 0.9774 -0
v 0.00355695 0.0233046 0.00914384
vn -0.5291 0.8486 -0
v 0.00748273 0.0257521 0.00914384
vn -0.5291 0.8486 -0
v 0.00355695 0.0233046 -0.00914384
vn -0.5291 0.8486 -0
v 0.00748273 0.0257521 -0.00914384
vn -0.5291 0.8486 -0
v 0.000947912 0.0205462 0.00914384
vn -0.7265 0.6872 -0
v 0.00355695 0.0233046 0.00914384
vn -0.7265 0.6872 -0
v 0.000947912 0.0205462 -0.00914384
vn -0.7265 0.6872 -0
v 0.00355695 0.0233046 -0.00914384
vn -0.7265 0.6872 -0
v 0.000947912 0.0205462 -0.00914384
vn -0.9026 0.4305 -0
v -0.00355695 0.0233046 -0.00914384
vn 0.7265 0.6872 -0
v -0.00355695 0.0233046 -0.00914384
vn 0.5291 0.8486 -0
v -0.00748273 0.0257521 -0.00914384
vn 0.5291 0.8486 -0
v -0.00748273 0.0257521 0.00914384
vn 0.5291 0.8486 -0
v -0.00355695 0.0233046 0.00914384
vn 0.5291 0.8486 -0
v -0.0123747 0.0268097 0.00914384
vn 0.2113 0.9774 -0
v -0.00748273 0.0257521 0.00914384
vn 0.2113 0.9774 -0
v -0.0123747 0.0268097 -0.00914384
vn 0.2113 0.9774 -0
v -0.00748273 0.0257521 -0.00914384
vn 0.2113 0.9774 -0
v -0.0123747 0.0268097 -0.00914384
vn -0.1326 0.9912 -0
vt 0.176141 0.558285
vt 0.200665 0.558285
vt 0.200665 1
vt 0.200665 0.558285
vt 0.222253 0.558285
vt 0.200665 1
vt 0.821015 0
vt 0.821015 0.02562
vt 0.567347 0.02562
vt 0.821015 0.02562
vt 0.821015 0.056608
vt 0.567347 0.02562
vt 0.821015 0.056608
vt 0.821015 0.094748
vt 0.567347 0.094748
vt 0.821015 0.094748
vt 0.821015 0.190449
vt 0.567347 0.094748
vt 0.309886 0.279142
vt 0.318156 0.288206
vt 0.329634 0.313153
vt 0.309886 0.279142
vt 0.329634 0.313153
vt 0.339819 0.350691
vt 0.309886 0.279142
vt 0.339819 0.350691
vt 0.34422 0.397468
vt 0.309886 0.279142
vt 0.34422 0.397468
vt 0.340529 0.460855
vt 0.309886 0.279142
vt 0.340529 0.460855
vt 0.330814 0.505301
vt 0.309886 0.279142
vt 0.330814 0.505301
vt 0.317065 0.534037
vt 0.309886 0.279142
vt 0.317065 0.534037
vt 0.301313 0.55027
vt 0.309886 0.279142
vt 0.301313 0.55027
vt 0.271811 0.558285
vt 0.309886 0.279142
vt 0.271811 0.558285
vt 0.258404 0.555196
vt 0.309886 0.279142
vt 0.258404 0.555196
vt 0.242791 0.549804
vt 0.309886 0.279142
vt 0.242791 0.549804
vt 0.22681 0.53427
vt 0.309886 0.279142
vt 0.22681 0.53427
vt 0.193605 0.476332
vt 0.309886 0.279142
vt 0.193605 0.476332
vt 0.158484 0.388841
vt 0.121094 0.279142
vt 0.158484 0.169444
vt 0.158484 0.388841
vt 0.242791 0.008481
vt 0.258404 0.003089
vt 0.22681 0.024014
vt 0.193605 0.081953
vt 0.22681 0.024014
vt 0.258404 0.003089
vt 0.258404 0.003089
vt 0.271811 0
vt 0.193605 0.081953
vt 0.271811 0
vt 0.301313 0.008015
vt 0.193605 0.081953
vt 0.301313 0.008015
vt 0.317065 0.024248
vt 0.193605 0.081953
vt 0.317065 0.024248
vt 0.330814 0.052984
vt 0.193605 0.081953
vt 0.330814 0.052984
vt 0.340529 0.097428
vt 0.193605 0.081953
vt 0.340529 0.097428
vt 0.34422 0.160817
vt 0.193605 0.081953
vt 0.34422 0.160817
vt 0.339819 0.207594
vt 0.193605 0.081953
vt 0.339819 0.207594
vt 0.329634 0.245131
vt 0.193605 0.081953
vt 0.329634 0.245131
vt 0.318156 0.270079
vt 0.193605 0.081953
vt 0.318156 0.270079
vt 0.309886 0.279142
vt 0.193605 0.081953
vt 0.158484 0.169444
vt 0.193605 0.081953
vt 0.309886 0.279142
vt 0.309886 0.279142
vt 0.158484 0.388841
vt 0.158484 0.169444
vt 0.449937 0.024014
vt 0.465918 0.008481
vt 0.533013 0.279142
vt 0.416731 0.081953
vt 0.449937 0.024014
vt 0.533013 0.279142
vt 0.381611 0.169444
vt 0.416731 0.081953
vt 0.533013 0.279142
vt 0.533013 0.279142
vt 0.381611 0.388841
vt 0.381611 0.169444
vt 0.465918 0.008481
vt 0.481531 0.003089
vt 0.533013 0.279142
vt 0.481531 0.003089
vt 0.494937 0
vt 0.533013 0.279142
vt 0.541282 0.270079
vt 0.533013 0.279142
vt 0.494937 0
vt 0.552761 0.245131
vt 0.541282 0.270079
vt 0.494937 0
vt 0.562946 0.207594
vt 0.552761 0.245131
vt 0.494937 0
vt 0.567347 0.160817
vt 0.562946 0.207594
vt 0.494937 0
vt 0.524439 0.008015
vt 0.563656 0.097428
vt 0.494937 0
vt 0.540192 0.024248
vt 0.563656 0.097428
vt 0.524439 0.008015
vt 0.553941 0.052984
vt 0.563656 0.097428
vt 0.540192 0.024248
vt 0.567347 0.160817
vt 0.494937 0
vt 0.563656 0.097428
vt 0.553941 0.505301
vt 0.540192 0.534037
vt 0.563656 0.460855
vt 0.540192 0.534037
vt 0.524439 0.55027
vt 0.563656 0.460855
vt 0.524439 0.55027
vt 0.494937 0.558285
vt 0.563656 0.460855
vt 0.567347 0.397468
vt 0.563656 0.460855
vt 0.494937 0.558285
vt 0.481531 0.555196
vt 0.533013 0.279142
vt 0.494937 0.558285
vt 0.465918 0.549804
vt 0.533013 0.279142
vt 0.481531 0.555196
vt 0.449937 0.53427
vt 0.533013 0.279142
vt 0.465918 0.549804
vt 0.416731 0.476332
vt 0.533013 0.279142
vt 0.449937 0.53427
vt 0.381611 0.388841
vt 0.533013 0.279142
vt 0.416731 0.476332
vt 0.34422 0.279142
vt 0.381611 0.169444
vt 0.381611 0.388841
vt 0.533013 0.279142
vt 0.541282 0.288206
vt 0.494937 0.558285
vt 0.541282 0.288206
vt 0.552761 0.313153
vt 0.494937 0.558285
vt 0.552761 0.313153
vt 0.562946 0.350691
vt 0.494937 0.558285
vt 0.567347 0.397468
vt 0.494937 0.558285
vt 0.562946 0.350691
vt 0.821015 0.444742
vt 0.567347 0.581011
vt 0.567347 0.444742
vt 0.821015 0.794737
vt 0.567347 0.794737
vt 0.567347 0.699037
vt 0.567347 0.832876
vt 0.567347 0.794737
vt 0.821015 0.794737
vt 0.45467 1
vt 0.466215 0.558285
vt 0.466215 1
vt 0.498607 1
vt 0.477759 1
vt 0.477759 0.558285
vt 0.253951 1
vt 0.222253 1
vt 0.253951 0.558285
vt 0.222253 0.558285
vt 0.253951 0.558285
vt 0.222253 1
vt 0.121094 1
vt 0.149395 0.558285
vt 0.149395 1
vt 0.567347 0
vt 0.821015 0
vt 0.567347 0.02562
vt 0.149395 0.558285
vt 0.176141 0.558285
vt 0.176141 1
vt 0.149395 0.558285
vt 0.176141 1
vt 0.149395 1
vt 0.567347 0.02562
vt 0.821015 0.056608
vt 0.567347 0.056608
vt 0.176141 0.558285
vt 0.200665 1
vt 0.176141 1
vt 0.821015 0.056608
vt 0.567347 0.094748
vt 0.567347 0.056608
vt 0.200665 1
vt 0.222253 0.558285
vt 0.222253 1
vt 0.567347 0.094748
vt 0.821015 0.190449
vt 0.567347 0.190448
vt 0.821015 0.308475
vt 0.567347 0.308475
vt 0.567347 0.190448
vt 0.821015 0.308475
vt 0.567347 0.190448
vt 0.821015 0.190449
vt 0.567347 0.308475
vt 0.821015 0.308475
vt 0.567347 0.444742
vt 0.821015 0.444742
vt 0.567347 0.444742
vt 0.821015 0.308475
vt 0.466215 0.558285
vt 0.477759 0.558285
vt 0.466215 1
vt 0.477759 1
vt 0.466215 1
vt 0.477759 0.558285
vt 0.821015 0.444742
vt 0.821015 0.581011
vt 0.567347 0.581011
vt 0.567347 0.699037
vt 0.567347 0.581011
vt 0.821015 0.699037
vt 0.821015 0.581011
vt 0.821015 0.699037
vt 0.567347 0.581011
vt 0.821015 0.699037
vt 0.821015 0.794737
vt 0.567347 0.699037
vt 0.567347 0.832876
vt 0.821015 0.794737
vt 0.821015 0.832876
vt 0.285648 0.558285
vt 0.285648 1
vt 0.253951 1
vt 0.821015 0.832876
vt 0.821015 0.863865
vt 0.567347 0.863865
vt 0.821015 0.832876
vt 0.567347 0.863865
vt 0.567347 0.832876
vt 0.307236 1
vt 0.285648 1
vt 0.285648 0.558285
vt 0.567347 0.889484
vt 0.567347 0.863865
vt 0.821015 0.889484
vt 0.821015 0.863865
vt 0.821015 0.889484
vt 0.567347 0.863865
vt 0.253951 0.558285
vt 0.285648 0.558285
vt 0.253951 1
vt 0.331761 1
vt 0.358507 0.558285
vt 0.358507 1
vt 0.307236 1
vt 0.285648 0.558285
vt 0.307236 0.558285
vt 0.358507 0.558285
vt 0.386808 1
vt 0.358507 1
vt 0.307236 0.558285
vt 0.331761 0.558285
vt 0.331761 1
vt 0.307236 0.558285
vt 0.331761 1
vt 0.307236 1
vt 0.331761 0.558285
vt 0.358507 0.558285
vt 0.331761 1
vt 0.386808 1
vt 0.358507 0.558285
vt 0.386808 0.558285
vt 0.386808 0.558285
vt 0.409316 0.558285
vt 0.409316 1
vt 0.386808 0.558285
vt 0.409316 1
vt 0.386808 1
vt 0.433823 1
vt 0.409316 1
vt 0.433823 0.558285
vt 0.409316 0.558285
vt 0.433823 0.558285
vt 0.409316 1
vt 0.45467 1
vt 0.433823 1
vt 0.45467 0.558285
vt 0.433823 0.558285
vt 0.45467 0.558285
vt 0.433823 1
vt 0.45467 0.558285
vt 0.466215 0.558285
vt 0.45467 1
vt 0.477759 0.558285
vt 0.498607 0.558285
vt 0.498607 1
vt 0.498607 0.558285
vt 0.523113 0.558285
vt 0.523113 1
vt 0.498607 0.558285
vt 0.523113 1
vt 0.498607 1
vt 0.545622 1
vt 0.523113 1
vt 0.545622 0.558285
vt 0.523113 0.558285
vt 0.545622 0.558285
vt 0.523113 1
vt 0.121094 0.558285
vt 0.149395 0.558285
vt 0.121094 1
usemtl heart_2
f 1/1/1 2/2/2 3/3/3
f 4/4/4 5/5/5 6/6/6
f 7/7/7 8/8/8 9/9/9
f 10/10/10 11/11/11 12/12/12
f 13/13/13 14/14/14 15/15/15
f 16/16/16 17/17/17 18/18/18
f 19/19/19 20/20/20 21/21/21
f 19/22/19 21/23/21 22/24/22
f 19/25/19 22/26/22 23/27/23
f 19/28/19 23/29/23 24/30/24
f 19/31/19 24/32/24 25/33/25
f 19/34/19 25/35/25 26/36/26
f 19/37/19 26/38/26 27/39/27
f 19/40/19 27/41/27 28/42/28
f 19/43/19 28/44/28 29/45/29
f 19/46/19 29/47/29 30/48/30
f 19/49/19 30/50/30 31/51/31
f 19/52/19 31/53/31 32/54/32
f 19/55/19 32/56/32 33/57/33
f 34/58/34 35/59/35 33/60/33
f 36/61/36 37/62/37 38/63/38
f 39/64/39 38/65/38 37/66/37
f 37/67/37 40/68/40 39/69/39
f 40/70/40 41/71/41 39/72/39
f 41/73/41 42/74/42 39/75/39
f 42/76/42 43/77/43 39/78/39
f 43/79/43 44/80/44 39/81/39
f 44/82/44 45/83/45 39/84/39
f 45/85/45 46/86/46 39/87/39
f 46/88/46 47/89/47 39/90/39
f 47/91/47 48/92/48 39/93/39
f 48/94/48 19/95/19 39/96/39
f 35/97/35 39/98/39 19/99/19
f 19/100/19 33/101/33 35/102/35
f 49/103/49 50/104/50 51/105/51
f 52/106/52 49/107/49 51/108/51
f 53/109/53 52/110/52 51/111/51
f 51/112/51 54/113/54 53/114/53
f 50/115/50 55/116/55 51/117/51
f 55/118/55 56/119/56 51/120/51
f 57/121/57 51/122/51 56/123/56
f 58/124/58 57/125/57 56/126/56
f 59/127/59 58/128/58 56/129/56
f 60/130/60 59/131/59 56/132/56
f 61/133/61 62/134/62 56/135/56
f 63/136/63 62/137/62 61/138/61
f 64/139/64 62/140/62 63/141/63
f 60/142/60 56/143/56 62/144/62
f 65/145/65 66/146/66 67/147/67
f 66/148/66 68/149/68 67/150/67
f 68/151/68 69/152/69 67/153/67
f 70/154/70 67/155/67 69/156/69
f 71/157/71 51/158/51 69/159/69
f 72/160/72 51/161/51 71/162/71
f 73/163/73 51/164/51 72/165/72
f 74/166/74 51/167/51 73/168/73
f 54/169/54 51/170/51 74/171/74
f 75/172/75 53/173/53 54/174/54
f 51/175/51 76/176/76 69/177/69
f 76/178/76 77/179/77 69/180/69
f 77/181/77 78/182/78 69/183/69
f 70/184/70 69/185/69 78/186/78
f 79/187/79 80/188/80 81/189/81
f 82/190/82 83/191/83 84/192/84
f 85/193/85 86/194/86 87/195/87
f 88/196/88 89/197/89 90/198/90
f 91/199/91 92/200/92 93/201/93
f 94/202/94 95/203/95 96/204/96
f 97/205/97 96/206/96 95/207/95
f 98/208/98 99/209/99 100/210/100
f 101/211/101 7/212/7 9/213/9
f 102/214/102 103/215/103 104/216/104
f 102/217/102 104/218/104 105/219/105
f 12/220/12 11/221/11 106/222/106
f 1/223/1 3/224/3 107/225/107
f 13/226/13 15/227/15 108/228/108
f 6/229/6 5/230/5 109/231/109
f 18/232/18 17/233/17 110/234/110
f 111/235/111 112/236/112 113/237/113
f 111/238/111 113/239/113 114/240/114
f 115/241/115 116/242/116 117/243/117
f 118/244/118 117/245/117 116/246/116
f 119/247/119 120/248/120 121/249/121
f 122/250/122 121/251/121 120/252/120
f 79/253/79 123/254/123 80/255/80
f 124/256/124 125/257/125 126/258/126
f 127/259/127 126/260/126 125/261/125
f 128/262/128 82/263/82 84/264/84
f 85/265/85 87/266/87 129/267/129
f 130/268/130 131/269/131 132/270/132
f 133/271/133 134/272/134 135/273/135
f 133/274/133 135/275/135 136/276/136
f 137/277/137 138/278/138 139/279/139
f 140/280/140 141/281/141 142/282/142
f 143/283/143 142/284/142 141/285/141
f 144/286/144 130/287/130 132/288/132
f 145/289/145 146/290/146 147/291/147
f 137/292/137 139/293/139 148/294/148
f 149/295/149 150/296/150 151/297/151
f 152/298/152 153/299/153 154/300/154
f 152/301/152 154/302/154 155/303/155
f 156/304/156 146/305/146 145/306/145
f 150/307/150 149/308/149 157/309/157
f 158/310/158 159/311/159 160/312/160
f 158/313/158 160/314/160 161/315/161
f 162/316/162 163/317/163 164/318/164
f 165/319/165 164/320/164 163/321/163
f 166/322/166 167/323/167 168/324/168
f 169/325/169 168/326/168 167/327/167
f 170/328/170 89/329/89 88/330/88
f 93/331/93 171/332/171 91/333/91
f 172/334/172 173/335/173 174/336/174
f 172/337/172 174/338/174 175/339/175
f 176/340/176 177/341/177 178/342/178
f 179/343/179 178/344/178 177/345/177
f 180/346/180 99/347/99 98/348/98
