# Created by Open3D 
# object name: square
# number of vertices: 24
# number of triangles: 12
mtllib square.mtl
v 0.0288675 0.0288675 0.00866025
vn -0 1 -0
v 0.0288675 0.0288675 -0.00866025
vn -0 1 -0
v -0.0288675 0.0288675 -0.00866025
vn -0 1 -0
v -0.0288675 0.0288675 0.00866025
vn -0 1 -0
v -0.0288675 0.0288675 0.00866025
vn -1 -0 -0
v -0.0288675 0.0288675 -0.00866025
vn -1 -0 -0
v -0.0288675 -0.0288675 -0.00866025
vn -1 -0 -0
v -0.0288675 -0.0288675 0.00866025
vn -1 -0 -0
v 0.0288675 -0.0288675 -0.00866025
vn -0 -0 -1
v -0.0288675 -0.0288675 -0.00866025
vn -0 -0 -1
v -0.0288675 0.0288675 -0.00866025
vn -0 -0 -1
v 0.0288675 0.0288675 -0.00866025
vn -0 -0 -1
v 0.0288675 0.0288675 0.00866025
vn -0 -0 1
v -0.0288675 0.0288675 0.00866025
vn -0 -0 1
v -0.0288675 -0.0288675 0.00866025
vn -0 -0 1
v 0.0288675 -0.0288675 0.00866025
vn -0 -0 1
v -0.0288675 -0.0288675 0.00866025
vn -0 -1 -0
v -0.0288675 -0.0288675 -0.00866025
vn -0 -1 -0
v 0.0288675 -0.0288675 -0.00866025
vn -0 -1 -0
v 0.0288675 -0.0288675 0.00866025
vn -0 -1 -0
v 0.0288675 -0.0288675 0.00866025
vn 1 -0 -0
v 0.0288675 -0.0288675 -0.00866025
vn 1 -0 -0
v 0.0288675 0.0288675 -0.00866025
vn 1 -0 -0
v 0.0288675 0.0288675 0.00866025
vn 1 -0 -0
vt 0.333334 0
vt 0.666668 0
vt 0.666668 0.333333
vt 0.333334 0
vt 0.666668 0.333333
vt 0.333333 0.333333
vt 0.333333 0.333333
vt 0.666668 0.333333
vt 0.666668 0.666666
vt 0.333333 0.333333
vt 0.666668 0.666666
vt 0.333333 0.666666
vt 0.333333 0.333333
vt 0 0.333333
vt 0 0
vt 0.333333 0.333333
vt 0 0
vt 0.333333 0
vt 0 0.333333
vt 0.333333 0.333333
vt 0.333333 0.666666
vt 0 0.333333
vt 0.333333 0.666666
vt 0 0.666667
vt 0.666666 0
vt 1 0
vt 1 0.333333
vt 0.666666 0
vt 1 0.333333
vt 0.666666 0.333333
vt 0 0.666667
vt 0.333334 0.666667
vt 0.333334 1
vt 0 0.666667
vt 0.333334 1
vt 0 1
usemtl square_2
f 1/1/1 2/2/2 3/3/3
f 1/4/1 3/5/3 4/6/4
f 5/7/5 6/8/6 7/9/7
f 5/10/5 7/11/7 8/12/8
f 9/13/9 10/14/10 11/15/11
f 9/16/9 11/17/11 12/18/12
f 13/19/13 14/20/14 15/21/15
f 13/22/13 15/23/15 16/24/16
f 17/25/17 18/26/18 19/27/19
f 17/28/17 19/29/19 20/30/20
f 21/31/21 22/32/22 23/33/23
f 21/34/21 23/35/23 24/36/24
