# Created by Open3D 
# object name: triangle
# number of vertices: 18
# number of triangles: 8
mtllib triangle.mtl
v 0 -0.0288675 -0.00866025
vn -0 -0 -1
v -0.0288675 0.0288675 -0.00866025
vn -0 -0 -1
v 0.0288675 0.0288675 -0.00866025
vn -0 -0 -1
v -0.0288675 0.0288675 0.00866025
vn -0 -0 1
v 0 -0.0288675 0.00866025
vn -0 -0 1
v 0.0288675 0.0288675 0.00866025
vn -0 -0 1
v 0 -0.0288675 0.00866025
vn 0.8944 -0.4472 -0
v 0 -0.0288675 -0.00866025
vn 0.8944 -0.4472 -0
v 0.0288675 0.0288675 -0.00866025
vn 0.8944 -0.4472 -0
v 0.0288675 0.0288675 0.00866025
vn 0.8944 -0.4472 -0
v 0.0288675 0.0288675 -0.00866025
vn -0 1 -0
v -0.0288675 0.0288675 -0.00866025
vn -0 1 -0
v -0.0288675 0.0288675 0.00866025
vn -0 1 -0
v 0.0288675 0.0288675 0.00866025
vn -0 1 -0
v -0.0288675 0.0288675 -0.00866025
vn -0.8944 -0.4472 -0
v 0 -0.0288675 -0.00866025
vn -0.8944 -0.4472 -0
v 0 -0.0288675 0.00866025
vn -0.8944 -0.4472 -0
v -0.0288675 0.0288675 0.00866025
vn -0.8944 -0.4472 -0
vt 0.320715 0.801786
vt 0 0.561251
vt 0.320715 0.400893
vt 0.64143 0.400893
vt 0.64143 0.801786
vt 0.320715 0.561251
vt 0 0
vt 0.35857 0
vt 0.35857 0.400893
vt 0 0
vt 0.35857 0.400893
vt 0 0.400893
vt 1 0.400893
vt 1 0.759463
vt 0.64143 0.759463
vt 1 0.400893
vt 0.64143 0.759463
vt 0.64143 0.400893
vt 0.71714 0
vt 0.71714 0.400893
vt 0.35857 0.400893
vt 0.71714 0
vt 0.35857 0.400893
vt 0.35857 0
usemtl triangle_2
f 1/1/1 2/2/2 3/3/3
f 4/4/4 5/5/5 6/6/6
f 7/7/7 8/8/8 9/9/9
f 7/10/7 9/11/9 10/12/10
f 11/13/11 12/14/12 13/15/13
f 11/16/11 13/17/13 14/18/14
f 15/19/15 16/20/16 17/21/17
f 15/22/15 17/23/17 18/24/18
